G04 #@! TF.GenerationSoftware,KiCad,Pcbnew,(5.1.2)-1*
G04 #@! TF.CreationDate,2019-05-13T18:55:33+02:00*
G04 #@! TF.ProjectId,Dispositivo_Resp,44697370-6f73-4697-9469-766f5f526573,rev?*
G04 #@! TF.SameCoordinates,Original*
G04 #@! TF.FileFunction,Soldermask,Bot*
G04 #@! TF.FilePolarity,Negative*
%FSLAX46Y46*%
G04 Gerber Fmt 4.6, Leading zero omitted, Abs format (unit mm)*
G04 Created by KiCad (PCBNEW (5.1.2)-1) date 2019-05-13 18:55:33*
%MOMM*%
%LPD*%
G04 APERTURE LIST*
%ADD10C,0.100000*%
G04 APERTURE END LIST*
D10*
G36*
X175901000Y-122901000D02*
G01*
X174099000Y-122901000D01*
X174099000Y-121099000D01*
X175901000Y-121099000D01*
X175901000Y-122901000D01*
X175901000Y-122901000D01*
G37*
G36*
X167220659Y-120774394D02*
G01*
X167354758Y-120815073D01*
X167478345Y-120881132D01*
X167586670Y-120970031D01*
X167675569Y-121078356D01*
X167741628Y-121201943D01*
X167782307Y-121336042D01*
X167796042Y-121475501D01*
X167782307Y-121614960D01*
X167741628Y-121749059D01*
X167675569Y-121872646D01*
X167586670Y-121980971D01*
X167478345Y-122069870D01*
X167354758Y-122135929D01*
X167220659Y-122176608D01*
X167116149Y-122186901D01*
X165725451Y-122186901D01*
X165620941Y-122176608D01*
X165486842Y-122135929D01*
X165363255Y-122069870D01*
X165254930Y-121980971D01*
X165166031Y-121872646D01*
X165099972Y-121749059D01*
X165059293Y-121614960D01*
X165045558Y-121475501D01*
X165059293Y-121336042D01*
X165099972Y-121201943D01*
X165166031Y-121078356D01*
X165254930Y-120970031D01*
X165363255Y-120881132D01*
X165486842Y-120815073D01*
X165620941Y-120774394D01*
X165725451Y-120764101D01*
X167116149Y-120764101D01*
X167220659Y-120774394D01*
X167220659Y-120774394D01*
G37*
G36*
X159600659Y-120774394D02*
G01*
X159734758Y-120815073D01*
X159858345Y-120881132D01*
X159966670Y-120970031D01*
X160055569Y-121078356D01*
X160121628Y-121201943D01*
X160162307Y-121336042D01*
X160176042Y-121475501D01*
X160162307Y-121614960D01*
X160121628Y-121749059D01*
X160055569Y-121872646D01*
X159966670Y-121980971D01*
X159858345Y-122069870D01*
X159734758Y-122135929D01*
X159600659Y-122176608D01*
X159496149Y-122186901D01*
X158105451Y-122186901D01*
X158000941Y-122176608D01*
X157866842Y-122135929D01*
X157743255Y-122069870D01*
X157634930Y-121980971D01*
X157546031Y-121872646D01*
X157479972Y-121749059D01*
X157439293Y-121614960D01*
X157425558Y-121475501D01*
X157439293Y-121336042D01*
X157479972Y-121201943D01*
X157546031Y-121078356D01*
X157634930Y-120970031D01*
X157743255Y-120881132D01*
X157866842Y-120815073D01*
X158000941Y-120774394D01*
X158105451Y-120764101D01*
X159496149Y-120764101D01*
X159600659Y-120774394D01*
X159600659Y-120774394D01*
G37*
G36*
X151363642Y-119699781D02*
G01*
X151509414Y-119760162D01*
X151509416Y-119760163D01*
X151640608Y-119847822D01*
X151752178Y-119959392D01*
X151839837Y-120090584D01*
X151839838Y-120090586D01*
X151900219Y-120236358D01*
X151931000Y-120391107D01*
X151931000Y-120548893D01*
X151900219Y-120703642D01*
X151839838Y-120849414D01*
X151839837Y-120849416D01*
X151752178Y-120980608D01*
X151640608Y-121092178D01*
X151509416Y-121179837D01*
X151509415Y-121179838D01*
X151509414Y-121179838D01*
X151363642Y-121240219D01*
X151208893Y-121271000D01*
X151051107Y-121271000D01*
X150896358Y-121240219D01*
X150750586Y-121179838D01*
X150750585Y-121179838D01*
X150750584Y-121179837D01*
X150619392Y-121092178D01*
X150507822Y-120980608D01*
X150420163Y-120849416D01*
X150420162Y-120849414D01*
X150359781Y-120703642D01*
X150329000Y-120548893D01*
X150329000Y-120391107D01*
X150359781Y-120236358D01*
X150420162Y-120090586D01*
X150420163Y-120090584D01*
X150507822Y-119959392D01*
X150619392Y-119847822D01*
X150750584Y-119760163D01*
X150750586Y-119760162D01*
X150896358Y-119699781D01*
X151051107Y-119669000D01*
X151208893Y-119669000D01*
X151363642Y-119699781D01*
X151363642Y-119699781D01*
G37*
G36*
X175110442Y-118565518D02*
G01*
X175176627Y-118572037D01*
X175346466Y-118623557D01*
X175502991Y-118707222D01*
X175538729Y-118736552D01*
X175640186Y-118819814D01*
X175723448Y-118921271D01*
X175752778Y-118957009D01*
X175836443Y-119113534D01*
X175887963Y-119283373D01*
X175905359Y-119460000D01*
X175887963Y-119636627D01*
X175836443Y-119806466D01*
X175752778Y-119962991D01*
X175723448Y-119998729D01*
X175640186Y-120100186D01*
X175538729Y-120183448D01*
X175502991Y-120212778D01*
X175346466Y-120296443D01*
X175176627Y-120347963D01*
X175110442Y-120354482D01*
X175044260Y-120361000D01*
X174955740Y-120361000D01*
X174889558Y-120354482D01*
X174823373Y-120347963D01*
X174653534Y-120296443D01*
X174497009Y-120212778D01*
X174461271Y-120183448D01*
X174359814Y-120100186D01*
X174276552Y-119998729D01*
X174247222Y-119962991D01*
X174163557Y-119806466D01*
X174112037Y-119636627D01*
X174094641Y-119460000D01*
X174112037Y-119283373D01*
X174163557Y-119113534D01*
X174247222Y-118957009D01*
X174276552Y-118921271D01*
X174359814Y-118819814D01*
X174461271Y-118736552D01*
X174497009Y-118707222D01*
X174653534Y-118623557D01*
X174823373Y-118572037D01*
X174889558Y-118565518D01*
X174955740Y-118559000D01*
X175044260Y-118559000D01*
X175110442Y-118565518D01*
X175110442Y-118565518D01*
G37*
G36*
X167220659Y-118234394D02*
G01*
X167354758Y-118275073D01*
X167478345Y-118341132D01*
X167586670Y-118430031D01*
X167675569Y-118538356D01*
X167741628Y-118661943D01*
X167782307Y-118796042D01*
X167796042Y-118935501D01*
X167782307Y-119074960D01*
X167741628Y-119209059D01*
X167675569Y-119332646D01*
X167586670Y-119440971D01*
X167478345Y-119529870D01*
X167354758Y-119595929D01*
X167220659Y-119636608D01*
X167116149Y-119646901D01*
X165725451Y-119646901D01*
X165620941Y-119636608D01*
X165486842Y-119595929D01*
X165363255Y-119529870D01*
X165254930Y-119440971D01*
X165166031Y-119332646D01*
X165099972Y-119209059D01*
X165059293Y-119074960D01*
X165045558Y-118935501D01*
X165059293Y-118796042D01*
X165099972Y-118661943D01*
X165166031Y-118538356D01*
X165254930Y-118430031D01*
X165363255Y-118341132D01*
X165486842Y-118275073D01*
X165620941Y-118234394D01*
X165725451Y-118224101D01*
X167116149Y-118224101D01*
X167220659Y-118234394D01*
X167220659Y-118234394D01*
G37*
G36*
X159600659Y-118234394D02*
G01*
X159734758Y-118275073D01*
X159858345Y-118341132D01*
X159966670Y-118430031D01*
X160055569Y-118538356D01*
X160121628Y-118661943D01*
X160162307Y-118796042D01*
X160176042Y-118935501D01*
X160162307Y-119074960D01*
X160121628Y-119209059D01*
X160055569Y-119332646D01*
X159966670Y-119440971D01*
X159858345Y-119529870D01*
X159734758Y-119595929D01*
X159600659Y-119636608D01*
X159496149Y-119646901D01*
X158105451Y-119646901D01*
X158000941Y-119636608D01*
X157866842Y-119595929D01*
X157743255Y-119529870D01*
X157634930Y-119440971D01*
X157546031Y-119332646D01*
X157479972Y-119209059D01*
X157439293Y-119074960D01*
X157425558Y-118935501D01*
X157439293Y-118796042D01*
X157479972Y-118661943D01*
X157546031Y-118538356D01*
X157634930Y-118430031D01*
X157743255Y-118341132D01*
X157866842Y-118275073D01*
X158000941Y-118234394D01*
X158105451Y-118224101D01*
X159496149Y-118224101D01*
X159600659Y-118234394D01*
X159600659Y-118234394D01*
G37*
G36*
X140748228Y-117181703D02*
G01*
X140903100Y-117245853D01*
X141042481Y-117338985D01*
X141161015Y-117457519D01*
X141254147Y-117596900D01*
X141318297Y-117751772D01*
X141351000Y-117916184D01*
X141351000Y-118083816D01*
X141318297Y-118248228D01*
X141254147Y-118403100D01*
X141161015Y-118542481D01*
X141042481Y-118661015D01*
X140903100Y-118754147D01*
X140748228Y-118818297D01*
X140583816Y-118851000D01*
X140416184Y-118851000D01*
X140251772Y-118818297D01*
X140096900Y-118754147D01*
X139957519Y-118661015D01*
X139838985Y-118542481D01*
X139745853Y-118403100D01*
X139681703Y-118248228D01*
X139649000Y-118083816D01*
X139649000Y-117916184D01*
X139681703Y-117751772D01*
X139745853Y-117596900D01*
X139838985Y-117457519D01*
X139957519Y-117338985D01*
X140096900Y-117245853D01*
X140251772Y-117181703D01*
X140416184Y-117149000D01*
X140583816Y-117149000D01*
X140748228Y-117181703D01*
X140748228Y-117181703D01*
G37*
G36*
X138248228Y-117181703D02*
G01*
X138403100Y-117245853D01*
X138542481Y-117338985D01*
X138661015Y-117457519D01*
X138754147Y-117596900D01*
X138818297Y-117751772D01*
X138851000Y-117916184D01*
X138851000Y-118083816D01*
X138818297Y-118248228D01*
X138754147Y-118403100D01*
X138661015Y-118542481D01*
X138542481Y-118661015D01*
X138403100Y-118754147D01*
X138248228Y-118818297D01*
X138083816Y-118851000D01*
X137916184Y-118851000D01*
X137751772Y-118818297D01*
X137596900Y-118754147D01*
X137457519Y-118661015D01*
X137338985Y-118542481D01*
X137245853Y-118403100D01*
X137181703Y-118248228D01*
X137149000Y-118083816D01*
X137149000Y-117916184D01*
X137181703Y-117751772D01*
X137245853Y-117596900D01*
X137338985Y-117457519D01*
X137457519Y-117338985D01*
X137596900Y-117245853D01*
X137751772Y-117181703D01*
X137916184Y-117149000D01*
X138083816Y-117149000D01*
X138248228Y-117181703D01*
X138248228Y-117181703D01*
G37*
G36*
X175110443Y-116025519D02*
G01*
X175176627Y-116032037D01*
X175346466Y-116083557D01*
X175502991Y-116167222D01*
X175533400Y-116192178D01*
X175640186Y-116279814D01*
X175689758Y-116340219D01*
X175752778Y-116417009D01*
X175836443Y-116573534D01*
X175887963Y-116743373D01*
X175905359Y-116920000D01*
X175887963Y-117096627D01*
X175836443Y-117266466D01*
X175752778Y-117422991D01*
X175724441Y-117457519D01*
X175640186Y-117560186D01*
X175538729Y-117643448D01*
X175502991Y-117672778D01*
X175346466Y-117756443D01*
X175176627Y-117807963D01*
X175110443Y-117814481D01*
X175044260Y-117821000D01*
X174955740Y-117821000D01*
X174889557Y-117814481D01*
X174823373Y-117807963D01*
X174653534Y-117756443D01*
X174497009Y-117672778D01*
X174461271Y-117643448D01*
X174359814Y-117560186D01*
X174275559Y-117457519D01*
X174247222Y-117422991D01*
X174163557Y-117266466D01*
X174112037Y-117096627D01*
X174094641Y-116920000D01*
X174112037Y-116743373D01*
X174163557Y-116573534D01*
X174247222Y-116417009D01*
X174310242Y-116340219D01*
X174359814Y-116279814D01*
X174466600Y-116192178D01*
X174497009Y-116167222D01*
X174653534Y-116083557D01*
X174823373Y-116032037D01*
X174889557Y-116025519D01*
X174955740Y-116019000D01*
X175044260Y-116019000D01*
X175110443Y-116025519D01*
X175110443Y-116025519D01*
G37*
G36*
X167220659Y-115694394D02*
G01*
X167354758Y-115735073D01*
X167478345Y-115801132D01*
X167586670Y-115890031D01*
X167675569Y-115998356D01*
X167741628Y-116121943D01*
X167782307Y-116256042D01*
X167796042Y-116395501D01*
X167782307Y-116534960D01*
X167741628Y-116669059D01*
X167675569Y-116792646D01*
X167586670Y-116900971D01*
X167478345Y-116989870D01*
X167354758Y-117055929D01*
X167220659Y-117096608D01*
X167116149Y-117106901D01*
X165725451Y-117106901D01*
X165620941Y-117096608D01*
X165486842Y-117055929D01*
X165363255Y-116989870D01*
X165254930Y-116900971D01*
X165166031Y-116792646D01*
X165099972Y-116669059D01*
X165059293Y-116534960D01*
X165045558Y-116395501D01*
X165059293Y-116256042D01*
X165099972Y-116121943D01*
X165166031Y-115998356D01*
X165254930Y-115890031D01*
X165363255Y-115801132D01*
X165486842Y-115735073D01*
X165620941Y-115694394D01*
X165725451Y-115684101D01*
X167116149Y-115684101D01*
X167220659Y-115694394D01*
X167220659Y-115694394D01*
G37*
G36*
X159600659Y-115694394D02*
G01*
X159734758Y-115735073D01*
X159858345Y-115801132D01*
X159966670Y-115890031D01*
X160055569Y-115998356D01*
X160121628Y-116121943D01*
X160162307Y-116256042D01*
X160176042Y-116395501D01*
X160162307Y-116534960D01*
X160121628Y-116669059D01*
X160055569Y-116792646D01*
X159966670Y-116900971D01*
X159858345Y-116989870D01*
X159734758Y-117055929D01*
X159600659Y-117096608D01*
X159496149Y-117106901D01*
X158105451Y-117106901D01*
X158000941Y-117096608D01*
X157866842Y-117055929D01*
X157743255Y-116989870D01*
X157634930Y-116900971D01*
X157546031Y-116792646D01*
X157479972Y-116669059D01*
X157439293Y-116534960D01*
X157425558Y-116395501D01*
X157439293Y-116256042D01*
X157479972Y-116121943D01*
X157546031Y-115998356D01*
X157634930Y-115890031D01*
X157743255Y-115801132D01*
X157866842Y-115735073D01*
X158000941Y-115694394D01*
X158105451Y-115684101D01*
X159496149Y-115684101D01*
X159600659Y-115694394D01*
X159600659Y-115694394D01*
G37*
G36*
X151363642Y-114799781D02*
G01*
X151509414Y-114860162D01*
X151509416Y-114860163D01*
X151640608Y-114947822D01*
X151752178Y-115059392D01*
X151801213Y-115132779D01*
X151839838Y-115190586D01*
X151900219Y-115336358D01*
X151931000Y-115491107D01*
X151931000Y-115648893D01*
X151900219Y-115803642D01*
X151839838Y-115949414D01*
X151839837Y-115949416D01*
X151752178Y-116080608D01*
X151640608Y-116192178D01*
X151509416Y-116279837D01*
X151509415Y-116279838D01*
X151509414Y-116279838D01*
X151363642Y-116340219D01*
X151208893Y-116371000D01*
X151051107Y-116371000D01*
X150896358Y-116340219D01*
X150750586Y-116279838D01*
X150750585Y-116279838D01*
X150750584Y-116279837D01*
X150619392Y-116192178D01*
X150507822Y-116080608D01*
X150420163Y-115949416D01*
X150420162Y-115949414D01*
X150359781Y-115803642D01*
X150329000Y-115648893D01*
X150329000Y-115491107D01*
X150359781Y-115336358D01*
X150420162Y-115190586D01*
X150458787Y-115132779D01*
X150507822Y-115059392D01*
X150619392Y-114947822D01*
X150750584Y-114860163D01*
X150750586Y-114860162D01*
X150896358Y-114799781D01*
X151051107Y-114769000D01*
X151208893Y-114769000D01*
X151363642Y-114799781D01*
X151363642Y-114799781D01*
G37*
G36*
X175110443Y-113485519D02*
G01*
X175176627Y-113492037D01*
X175346466Y-113543557D01*
X175502991Y-113627222D01*
X175538729Y-113656552D01*
X175640186Y-113739814D01*
X175723448Y-113841271D01*
X175752778Y-113877009D01*
X175836443Y-114033534D01*
X175887963Y-114203373D01*
X175905359Y-114380000D01*
X175887963Y-114556627D01*
X175836443Y-114726466D01*
X175752778Y-114882991D01*
X175723448Y-114918729D01*
X175640186Y-115020186D01*
X175538729Y-115103448D01*
X175502991Y-115132778D01*
X175346466Y-115216443D01*
X175176627Y-115267963D01*
X175110442Y-115274482D01*
X175044260Y-115281000D01*
X174955740Y-115281000D01*
X174889558Y-115274482D01*
X174823373Y-115267963D01*
X174653534Y-115216443D01*
X174497009Y-115132778D01*
X174461271Y-115103448D01*
X174359814Y-115020186D01*
X174276552Y-114918729D01*
X174247222Y-114882991D01*
X174163557Y-114726466D01*
X174112037Y-114556627D01*
X174094641Y-114380000D01*
X174112037Y-114203373D01*
X174163557Y-114033534D01*
X174247222Y-113877009D01*
X174276552Y-113841271D01*
X174359814Y-113739814D01*
X174461271Y-113656552D01*
X174497009Y-113627222D01*
X174653534Y-113543557D01*
X174823373Y-113492037D01*
X174889557Y-113485519D01*
X174955740Y-113479000D01*
X175044260Y-113479000D01*
X175110443Y-113485519D01*
X175110443Y-113485519D01*
G37*
G36*
X167220659Y-113154394D02*
G01*
X167354758Y-113195073D01*
X167478345Y-113261132D01*
X167586670Y-113350031D01*
X167675569Y-113458356D01*
X167741628Y-113581943D01*
X167782307Y-113716042D01*
X167796042Y-113855501D01*
X167782307Y-113994960D01*
X167741628Y-114129059D01*
X167675569Y-114252646D01*
X167586670Y-114360971D01*
X167478345Y-114449870D01*
X167354758Y-114515929D01*
X167220659Y-114556608D01*
X167116149Y-114566901D01*
X165725451Y-114566901D01*
X165620941Y-114556608D01*
X165486842Y-114515929D01*
X165363255Y-114449870D01*
X165254930Y-114360971D01*
X165166031Y-114252646D01*
X165099972Y-114129059D01*
X165059293Y-113994960D01*
X165045558Y-113855501D01*
X165059293Y-113716042D01*
X165099972Y-113581943D01*
X165166031Y-113458356D01*
X165254930Y-113350031D01*
X165363255Y-113261132D01*
X165486842Y-113195073D01*
X165620941Y-113154394D01*
X165725451Y-113144101D01*
X167116149Y-113144101D01*
X167220659Y-113154394D01*
X167220659Y-113154394D01*
G37*
G36*
X159600659Y-113154394D02*
G01*
X159734758Y-113195073D01*
X159858345Y-113261132D01*
X159966670Y-113350031D01*
X160055569Y-113458356D01*
X160121628Y-113581943D01*
X160162307Y-113716042D01*
X160176042Y-113855501D01*
X160162307Y-113994960D01*
X160121628Y-114129059D01*
X160055569Y-114252646D01*
X159966670Y-114360971D01*
X159858345Y-114449870D01*
X159734758Y-114515929D01*
X159600659Y-114556608D01*
X159496149Y-114566901D01*
X158105451Y-114566901D01*
X158000941Y-114556608D01*
X157866842Y-114515929D01*
X157743255Y-114449870D01*
X157634930Y-114360971D01*
X157546031Y-114252646D01*
X157479972Y-114129059D01*
X157439293Y-113994960D01*
X157425558Y-113855501D01*
X157439293Y-113716042D01*
X157479972Y-113581943D01*
X157546031Y-113458356D01*
X157634930Y-113350031D01*
X157743255Y-113261132D01*
X157866842Y-113195073D01*
X158000941Y-113154394D01*
X158105451Y-113144101D01*
X159496149Y-113144101D01*
X159600659Y-113154394D01*
X159600659Y-113154394D01*
G37*
G36*
X140748228Y-111181703D02*
G01*
X140903100Y-111245853D01*
X141042481Y-111338985D01*
X141161015Y-111457519D01*
X141254147Y-111596900D01*
X141318297Y-111751772D01*
X141351000Y-111916184D01*
X141351000Y-112083816D01*
X141318297Y-112248228D01*
X141254147Y-112403100D01*
X141161015Y-112542481D01*
X141042481Y-112661015D01*
X140903100Y-112754147D01*
X140748228Y-112818297D01*
X140583816Y-112851000D01*
X140416184Y-112851000D01*
X140251772Y-112818297D01*
X140096900Y-112754147D01*
X139957519Y-112661015D01*
X139838985Y-112542481D01*
X139745853Y-112403100D01*
X139681703Y-112248228D01*
X139649000Y-112083816D01*
X139649000Y-111916184D01*
X139681703Y-111751772D01*
X139745853Y-111596900D01*
X139838985Y-111457519D01*
X139957519Y-111338985D01*
X140096900Y-111245853D01*
X140251772Y-111181703D01*
X140416184Y-111149000D01*
X140583816Y-111149000D01*
X140748228Y-111181703D01*
X140748228Y-111181703D01*
G37*
G36*
X138248228Y-111181703D02*
G01*
X138403100Y-111245853D01*
X138542481Y-111338985D01*
X138661015Y-111457519D01*
X138754147Y-111596900D01*
X138818297Y-111751772D01*
X138851000Y-111916184D01*
X138851000Y-112083816D01*
X138818297Y-112248228D01*
X138754147Y-112403100D01*
X138661015Y-112542481D01*
X138542481Y-112661015D01*
X138403100Y-112754147D01*
X138248228Y-112818297D01*
X138083816Y-112851000D01*
X137916184Y-112851000D01*
X137751772Y-112818297D01*
X137596900Y-112754147D01*
X137457519Y-112661015D01*
X137338985Y-112542481D01*
X137245853Y-112403100D01*
X137181703Y-112248228D01*
X137149000Y-112083816D01*
X137149000Y-111916184D01*
X137181703Y-111751772D01*
X137245853Y-111596900D01*
X137338985Y-111457519D01*
X137457519Y-111338985D01*
X137596900Y-111245853D01*
X137751772Y-111181703D01*
X137916184Y-111149000D01*
X138083816Y-111149000D01*
X138248228Y-111181703D01*
X138248228Y-111181703D01*
G37*
G36*
X175110442Y-110945518D02*
G01*
X175176627Y-110952037D01*
X175346466Y-111003557D01*
X175502991Y-111087222D01*
X175538729Y-111116552D01*
X175640186Y-111199814D01*
X175723448Y-111301271D01*
X175752778Y-111337009D01*
X175836443Y-111493534D01*
X175887963Y-111663373D01*
X175905359Y-111840000D01*
X175887963Y-112016627D01*
X175836443Y-112186466D01*
X175752778Y-112342991D01*
X175723448Y-112378729D01*
X175640186Y-112480186D01*
X175564279Y-112542480D01*
X175502991Y-112592778D01*
X175346466Y-112676443D01*
X175176627Y-112727963D01*
X175110443Y-112734481D01*
X175044260Y-112741000D01*
X174955740Y-112741000D01*
X174889557Y-112734481D01*
X174823373Y-112727963D01*
X174653534Y-112676443D01*
X174497009Y-112592778D01*
X174435721Y-112542480D01*
X174359814Y-112480186D01*
X174276552Y-112378729D01*
X174247222Y-112342991D01*
X174163557Y-112186466D01*
X174112037Y-112016627D01*
X174094641Y-111840000D01*
X174112037Y-111663373D01*
X174163557Y-111493534D01*
X174247222Y-111337009D01*
X174276552Y-111301271D01*
X174359814Y-111199814D01*
X174461271Y-111116552D01*
X174497009Y-111087222D01*
X174653534Y-111003557D01*
X174823373Y-110952037D01*
X174889558Y-110945518D01*
X174955740Y-110939000D01*
X175044260Y-110939000D01*
X175110442Y-110945518D01*
X175110442Y-110945518D01*
G37*
G36*
X167220659Y-110614394D02*
G01*
X167354758Y-110655073D01*
X167478345Y-110721132D01*
X167586670Y-110810031D01*
X167675569Y-110918356D01*
X167741628Y-111041943D01*
X167782307Y-111176042D01*
X167796042Y-111315501D01*
X167782307Y-111454960D01*
X167741628Y-111589059D01*
X167675569Y-111712646D01*
X167586670Y-111820971D01*
X167478345Y-111909870D01*
X167354758Y-111975929D01*
X167220659Y-112016608D01*
X167116149Y-112026901D01*
X165725451Y-112026901D01*
X165620941Y-112016608D01*
X165486842Y-111975929D01*
X165363255Y-111909870D01*
X165254930Y-111820971D01*
X165166031Y-111712646D01*
X165099972Y-111589059D01*
X165059293Y-111454960D01*
X165045558Y-111315501D01*
X165059293Y-111176042D01*
X165099972Y-111041943D01*
X165166031Y-110918356D01*
X165254930Y-110810031D01*
X165363255Y-110721132D01*
X165486842Y-110655073D01*
X165620941Y-110614394D01*
X165725451Y-110604101D01*
X167116149Y-110604101D01*
X167220659Y-110614394D01*
X167220659Y-110614394D01*
G37*
G36*
X159600659Y-110614394D02*
G01*
X159734758Y-110655073D01*
X159858345Y-110721132D01*
X159966670Y-110810031D01*
X160055569Y-110918356D01*
X160121628Y-111041943D01*
X160162307Y-111176042D01*
X160176042Y-111315501D01*
X160162307Y-111454960D01*
X160121628Y-111589059D01*
X160055569Y-111712646D01*
X159966670Y-111820971D01*
X159858345Y-111909870D01*
X159734758Y-111975929D01*
X159600659Y-112016608D01*
X159496149Y-112026901D01*
X158105451Y-112026901D01*
X158000941Y-112016608D01*
X157866842Y-111975929D01*
X157743255Y-111909870D01*
X157634930Y-111820971D01*
X157546031Y-111712646D01*
X157479972Y-111589059D01*
X157439293Y-111454960D01*
X157425558Y-111315501D01*
X157439293Y-111176042D01*
X157479972Y-111041943D01*
X157546031Y-110918356D01*
X157634930Y-110810031D01*
X157743255Y-110721132D01*
X157866842Y-110655073D01*
X158000941Y-110614394D01*
X158105451Y-110604101D01*
X159496149Y-110604101D01*
X159600659Y-110614394D01*
X159600659Y-110614394D01*
G37*
G36*
X175110442Y-108405518D02*
G01*
X175176627Y-108412037D01*
X175346466Y-108463557D01*
X175502991Y-108547222D01*
X175538729Y-108576552D01*
X175640186Y-108659814D01*
X175723448Y-108761271D01*
X175752778Y-108797009D01*
X175836443Y-108953534D01*
X175887963Y-109123373D01*
X175905359Y-109300000D01*
X175887963Y-109476627D01*
X175836443Y-109646466D01*
X175752778Y-109802991D01*
X175723448Y-109838729D01*
X175640186Y-109940186D01*
X175538729Y-110023448D01*
X175502991Y-110052778D01*
X175346466Y-110136443D01*
X175176627Y-110187963D01*
X175110443Y-110194481D01*
X175044260Y-110201000D01*
X174955740Y-110201000D01*
X174889557Y-110194481D01*
X174823373Y-110187963D01*
X174653534Y-110136443D01*
X174497009Y-110052778D01*
X174461271Y-110023448D01*
X174359814Y-109940186D01*
X174276552Y-109838729D01*
X174247222Y-109802991D01*
X174163557Y-109646466D01*
X174112037Y-109476627D01*
X174094641Y-109300000D01*
X174112037Y-109123373D01*
X174163557Y-108953534D01*
X174247222Y-108797009D01*
X174276552Y-108761271D01*
X174359814Y-108659814D01*
X174461271Y-108576552D01*
X174497009Y-108547222D01*
X174653534Y-108463557D01*
X174823373Y-108412037D01*
X174889558Y-108405518D01*
X174955740Y-108399000D01*
X175044260Y-108399000D01*
X175110442Y-108405518D01*
X175110442Y-108405518D01*
G37*
G36*
X159600659Y-108074394D02*
G01*
X159734758Y-108115073D01*
X159858345Y-108181132D01*
X159966670Y-108270031D01*
X160055569Y-108378356D01*
X160121628Y-108501943D01*
X160162307Y-108636042D01*
X160176042Y-108775501D01*
X160162307Y-108914960D01*
X160121628Y-109049059D01*
X160055569Y-109172646D01*
X159966670Y-109280971D01*
X159858345Y-109369870D01*
X159734758Y-109435929D01*
X159600659Y-109476608D01*
X159496149Y-109486901D01*
X158105451Y-109486901D01*
X158000941Y-109476608D01*
X157866842Y-109435929D01*
X157743255Y-109369870D01*
X157634930Y-109280971D01*
X157546031Y-109172646D01*
X157479972Y-109049059D01*
X157439293Y-108914960D01*
X157425558Y-108775501D01*
X157439293Y-108636042D01*
X157479972Y-108501943D01*
X157546031Y-108378356D01*
X157634930Y-108270031D01*
X157743255Y-108181132D01*
X157866842Y-108115073D01*
X158000941Y-108074394D01*
X158105451Y-108064101D01*
X159496149Y-108064101D01*
X159600659Y-108074394D01*
X159600659Y-108074394D01*
G37*
G36*
X167220659Y-108074394D02*
G01*
X167354758Y-108115073D01*
X167478345Y-108181132D01*
X167586670Y-108270031D01*
X167675569Y-108378356D01*
X167741628Y-108501943D01*
X167782307Y-108636042D01*
X167796042Y-108775501D01*
X167782307Y-108914960D01*
X167741628Y-109049059D01*
X167675569Y-109172646D01*
X167586670Y-109280971D01*
X167478345Y-109369870D01*
X167354758Y-109435929D01*
X167220659Y-109476608D01*
X167116149Y-109486901D01*
X165725451Y-109486901D01*
X165620941Y-109476608D01*
X165486842Y-109435929D01*
X165363255Y-109369870D01*
X165254930Y-109280971D01*
X165166031Y-109172646D01*
X165099972Y-109049059D01*
X165059293Y-108914960D01*
X165045558Y-108775501D01*
X165059293Y-108636042D01*
X165099972Y-108501943D01*
X165166031Y-108378356D01*
X165254930Y-108270031D01*
X165363255Y-108181132D01*
X165486842Y-108115073D01*
X165620941Y-108074394D01*
X165725451Y-108064101D01*
X167116149Y-108064101D01*
X167220659Y-108074394D01*
X167220659Y-108074394D01*
G37*
G36*
X167220659Y-105534394D02*
G01*
X167354758Y-105575073D01*
X167478345Y-105641132D01*
X167586670Y-105730031D01*
X167675569Y-105838356D01*
X167741628Y-105961943D01*
X167782307Y-106096042D01*
X167796042Y-106235501D01*
X167782307Y-106374960D01*
X167741628Y-106509059D01*
X167675569Y-106632646D01*
X167586670Y-106740971D01*
X167478345Y-106829870D01*
X167354758Y-106895929D01*
X167220659Y-106936608D01*
X167116149Y-106946901D01*
X165725451Y-106946901D01*
X165620941Y-106936608D01*
X165486842Y-106895929D01*
X165363255Y-106829870D01*
X165254930Y-106740971D01*
X165166031Y-106632646D01*
X165099972Y-106509059D01*
X165059293Y-106374960D01*
X165045558Y-106235501D01*
X165059293Y-106096042D01*
X165099972Y-105961943D01*
X165166031Y-105838356D01*
X165254930Y-105730031D01*
X165363255Y-105641132D01*
X165486842Y-105575073D01*
X165620941Y-105534394D01*
X165725451Y-105524101D01*
X167116149Y-105524101D01*
X167220659Y-105534394D01*
X167220659Y-105534394D01*
G37*
G36*
X159600659Y-105534394D02*
G01*
X159734758Y-105575073D01*
X159858345Y-105641132D01*
X159966670Y-105730031D01*
X160055569Y-105838356D01*
X160121628Y-105961943D01*
X160162307Y-106096042D01*
X160176042Y-106235501D01*
X160162307Y-106374960D01*
X160121628Y-106509059D01*
X160055569Y-106632646D01*
X159966670Y-106740971D01*
X159858345Y-106829870D01*
X159734758Y-106895929D01*
X159600659Y-106936608D01*
X159496149Y-106946901D01*
X158105451Y-106946901D01*
X158000941Y-106936608D01*
X157866842Y-106895929D01*
X157743255Y-106829870D01*
X157634930Y-106740971D01*
X157546031Y-106632646D01*
X157479972Y-106509059D01*
X157439293Y-106374960D01*
X157425558Y-106235501D01*
X157439293Y-106096042D01*
X157479972Y-105961943D01*
X157546031Y-105838356D01*
X157634930Y-105730031D01*
X157743255Y-105641132D01*
X157866842Y-105575073D01*
X158000941Y-105534394D01*
X158105451Y-105524101D01*
X159496149Y-105524101D01*
X159600659Y-105534394D01*
X159600659Y-105534394D01*
G37*
G36*
X151551000Y-104551000D02*
G01*
X151322735Y-104551000D01*
X151298349Y-104553402D01*
X151274900Y-104560515D01*
X151253289Y-104572066D01*
X151234347Y-104587611D01*
X151218802Y-104606553D01*
X151207251Y-104628164D01*
X151200138Y-104651613D01*
X151197736Y-104675999D01*
X151200138Y-104700385D01*
X151207251Y-104723834D01*
X151218802Y-104745445D01*
X151234347Y-104764387D01*
X151253289Y-104779932D01*
X151263802Y-104786233D01*
X151307600Y-104809644D01*
X151307602Y-104809645D01*
X151307601Y-104809645D01*
X151391501Y-104878499D01*
X151460357Y-104962400D01*
X151496995Y-105030945D01*
X151511521Y-105058121D01*
X151543027Y-105161985D01*
X151553666Y-105270000D01*
X151543027Y-105378015D01*
X151511521Y-105481879D01*
X151511519Y-105481882D01*
X151460357Y-105577600D01*
X151391501Y-105661501D01*
X151307600Y-105730357D01*
X151239055Y-105766995D01*
X151211879Y-105781521D01*
X151108015Y-105813027D01*
X151027067Y-105821000D01*
X150972933Y-105821000D01*
X150891985Y-105813027D01*
X150788121Y-105781521D01*
X150760945Y-105766995D01*
X150692400Y-105730357D01*
X150608499Y-105661501D01*
X150539643Y-105577600D01*
X150488481Y-105481882D01*
X150488479Y-105481879D01*
X150456973Y-105378015D01*
X150446334Y-105270000D01*
X150456973Y-105161985D01*
X150488479Y-105058121D01*
X150503005Y-105030945D01*
X150539643Y-104962400D01*
X150608499Y-104878499D01*
X150692399Y-104809645D01*
X150692398Y-104809645D01*
X150692400Y-104809644D01*
X150736193Y-104786236D01*
X150756563Y-104772625D01*
X150773890Y-104755298D01*
X150787504Y-104734924D01*
X150796881Y-104712285D01*
X150801662Y-104688252D01*
X150801662Y-104663748D01*
X150796882Y-104639714D01*
X150787505Y-104617076D01*
X150773891Y-104596701D01*
X150756564Y-104579374D01*
X150736190Y-104565760D01*
X150713551Y-104556383D01*
X150689518Y-104551602D01*
X150677265Y-104551000D01*
X150449000Y-104551000D01*
X150449000Y-103449000D01*
X151551000Y-103449000D01*
X151551000Y-104551000D01*
X151551000Y-104551000D01*
G37*
G36*
X183186564Y-103129389D02*
G01*
X183377833Y-103208615D01*
X183377835Y-103208616D01*
X183512140Y-103298356D01*
X183549973Y-103323635D01*
X183696365Y-103470027D01*
X183811385Y-103642167D01*
X183890611Y-103833436D01*
X183931000Y-104036484D01*
X183931000Y-104243516D01*
X183890611Y-104446564D01*
X183819983Y-104617076D01*
X183811384Y-104637835D01*
X183696365Y-104809973D01*
X183549973Y-104956365D01*
X183377835Y-105071384D01*
X183377834Y-105071385D01*
X183377833Y-105071385D01*
X183186564Y-105150611D01*
X182983516Y-105191000D01*
X182776484Y-105191000D01*
X182573436Y-105150611D01*
X182382167Y-105071385D01*
X182382166Y-105071385D01*
X182382165Y-105071384D01*
X182210027Y-104956365D01*
X182063635Y-104809973D01*
X181948616Y-104637835D01*
X181940017Y-104617076D01*
X181869389Y-104446564D01*
X181829000Y-104243516D01*
X181829000Y-104036484D01*
X181869389Y-103833436D01*
X181948615Y-103642167D01*
X182063635Y-103470027D01*
X182210027Y-103323635D01*
X182247860Y-103298356D01*
X182382165Y-103208616D01*
X182382167Y-103208615D01*
X182573436Y-103129389D01*
X182776484Y-103089000D01*
X182983516Y-103089000D01*
X183186564Y-103129389D01*
X183186564Y-103129389D01*
G37*
G36*
X167220659Y-102994394D02*
G01*
X167354758Y-103035073D01*
X167478345Y-103101132D01*
X167586670Y-103190031D01*
X167675569Y-103298356D01*
X167741628Y-103421943D01*
X167782307Y-103556042D01*
X167796042Y-103695501D01*
X167782307Y-103834960D01*
X167741628Y-103969059D01*
X167675569Y-104092646D01*
X167586670Y-104200971D01*
X167478345Y-104289870D01*
X167354758Y-104355929D01*
X167220659Y-104396608D01*
X167116149Y-104406901D01*
X165725451Y-104406901D01*
X165620941Y-104396608D01*
X165486842Y-104355929D01*
X165363255Y-104289870D01*
X165254930Y-104200971D01*
X165166031Y-104092646D01*
X165099972Y-103969059D01*
X165059293Y-103834960D01*
X165045558Y-103695501D01*
X165059293Y-103556042D01*
X165099972Y-103421943D01*
X165166031Y-103298356D01*
X165254930Y-103190031D01*
X165363255Y-103101132D01*
X165486842Y-103035073D01*
X165620941Y-102994394D01*
X165725451Y-102984101D01*
X167116149Y-102984101D01*
X167220659Y-102994394D01*
X167220659Y-102994394D01*
G37*
G36*
X159600659Y-102994394D02*
G01*
X159734758Y-103035073D01*
X159858345Y-103101132D01*
X159966670Y-103190031D01*
X160055569Y-103298356D01*
X160121628Y-103421943D01*
X160162307Y-103556042D01*
X160176042Y-103695501D01*
X160162307Y-103834960D01*
X160121628Y-103969059D01*
X160055569Y-104092646D01*
X159966670Y-104200971D01*
X159858345Y-104289870D01*
X159734758Y-104355929D01*
X159600659Y-104396608D01*
X159496149Y-104406901D01*
X158105451Y-104406901D01*
X158000941Y-104396608D01*
X157866842Y-104355929D01*
X157743255Y-104289870D01*
X157634930Y-104200971D01*
X157546031Y-104092646D01*
X157479972Y-103969059D01*
X157439293Y-103834960D01*
X157425558Y-103695501D01*
X157439293Y-103556042D01*
X157479972Y-103421943D01*
X157546031Y-103298356D01*
X157634930Y-103190031D01*
X157743255Y-103101132D01*
X157866842Y-103035073D01*
X158000941Y-102994394D01*
X158105451Y-102984101D01*
X159496149Y-102984101D01*
X159600659Y-102994394D01*
X159600659Y-102994394D01*
G37*
G36*
X183186564Y-100589389D02*
G01*
X183377833Y-100668615D01*
X183377835Y-100668616D01*
X183512140Y-100758356D01*
X183549973Y-100783635D01*
X183696365Y-100930027D01*
X183811385Y-101102167D01*
X183890611Y-101293436D01*
X183931000Y-101496484D01*
X183931000Y-101703516D01*
X183890611Y-101906564D01*
X183811385Y-102097833D01*
X183811384Y-102097835D01*
X183696365Y-102269973D01*
X183549973Y-102416365D01*
X183377835Y-102531384D01*
X183377834Y-102531385D01*
X183377833Y-102531385D01*
X183186564Y-102610611D01*
X182983516Y-102651000D01*
X182776484Y-102651000D01*
X182573436Y-102610611D01*
X182382167Y-102531385D01*
X182382166Y-102531385D01*
X182382165Y-102531384D01*
X182210027Y-102416365D01*
X182063635Y-102269973D01*
X181948616Y-102097835D01*
X181948615Y-102097833D01*
X181869389Y-101906564D01*
X181829000Y-101703516D01*
X181829000Y-101496484D01*
X181869389Y-101293436D01*
X181948615Y-101102167D01*
X182063635Y-100930027D01*
X182210027Y-100783635D01*
X182247860Y-100758356D01*
X182382165Y-100668616D01*
X182382167Y-100668615D01*
X182573436Y-100589389D01*
X182776484Y-100549000D01*
X182983516Y-100549000D01*
X183186564Y-100589389D01*
X183186564Y-100589389D01*
G37*
G36*
X159600659Y-100454394D02*
G01*
X159734758Y-100495073D01*
X159858345Y-100561132D01*
X159966670Y-100650031D01*
X160055569Y-100758356D01*
X160121628Y-100881943D01*
X160162307Y-101016042D01*
X160176042Y-101155501D01*
X160162307Y-101294960D01*
X160121628Y-101429059D01*
X160055569Y-101552646D01*
X159966670Y-101660971D01*
X159858345Y-101749870D01*
X159734758Y-101815929D01*
X159600659Y-101856608D01*
X159496149Y-101866901D01*
X158105451Y-101866901D01*
X158000941Y-101856608D01*
X157866842Y-101815929D01*
X157743255Y-101749870D01*
X157634930Y-101660971D01*
X157546031Y-101552646D01*
X157479972Y-101429059D01*
X157439293Y-101294960D01*
X157425558Y-101155501D01*
X157439293Y-101016042D01*
X157479972Y-100881943D01*
X157546031Y-100758356D01*
X157634930Y-100650031D01*
X157743255Y-100561132D01*
X157866842Y-100495073D01*
X158000941Y-100454394D01*
X158105451Y-100444101D01*
X159496149Y-100444101D01*
X159600659Y-100454394D01*
X159600659Y-100454394D01*
G37*
G36*
X167220659Y-100454394D02*
G01*
X167354758Y-100495073D01*
X167478345Y-100561132D01*
X167586670Y-100650031D01*
X167675569Y-100758356D01*
X167741628Y-100881943D01*
X167782307Y-101016042D01*
X167796042Y-101155501D01*
X167782307Y-101294960D01*
X167741628Y-101429059D01*
X167675569Y-101552646D01*
X167586670Y-101660971D01*
X167478345Y-101749870D01*
X167354758Y-101815929D01*
X167220659Y-101856608D01*
X167116149Y-101866901D01*
X165725451Y-101866901D01*
X165620941Y-101856608D01*
X165486842Y-101815929D01*
X165363255Y-101749870D01*
X165254930Y-101660971D01*
X165166031Y-101552646D01*
X165099972Y-101429059D01*
X165059293Y-101294960D01*
X165045558Y-101155501D01*
X165059293Y-101016042D01*
X165099972Y-100881943D01*
X165166031Y-100758356D01*
X165254930Y-100650031D01*
X165363255Y-100561132D01*
X165486842Y-100495073D01*
X165620941Y-100454394D01*
X165725451Y-100444101D01*
X167116149Y-100444101D01*
X167220659Y-100454394D01*
X167220659Y-100454394D01*
G37*
G36*
X183186564Y-98049389D02*
G01*
X183377833Y-98128615D01*
X183377835Y-98128616D01*
X183549973Y-98243635D01*
X183696365Y-98390027D01*
X183761287Y-98487189D01*
X183811385Y-98562167D01*
X183890611Y-98753436D01*
X183931000Y-98956484D01*
X183931000Y-99163516D01*
X183890611Y-99366564D01*
X183811385Y-99557833D01*
X183811384Y-99557835D01*
X183696365Y-99729973D01*
X183549973Y-99876365D01*
X183377835Y-99991384D01*
X183377834Y-99991385D01*
X183377833Y-99991385D01*
X183186564Y-100070611D01*
X182983516Y-100111000D01*
X182776484Y-100111000D01*
X182573436Y-100070611D01*
X182382167Y-99991385D01*
X182382166Y-99991385D01*
X182382165Y-99991384D01*
X182210027Y-99876365D01*
X182063635Y-99729973D01*
X181948616Y-99557835D01*
X181948615Y-99557833D01*
X181869389Y-99366564D01*
X181829000Y-99163516D01*
X181829000Y-98956484D01*
X181869389Y-98753436D01*
X181948615Y-98562167D01*
X181998714Y-98487189D01*
X182063635Y-98390027D01*
X182210027Y-98243635D01*
X182382165Y-98128616D01*
X182382167Y-98128615D01*
X182573436Y-98049389D01*
X182776484Y-98009000D01*
X182983516Y-98009000D01*
X183186564Y-98049389D01*
X183186564Y-98049389D01*
G37*
G36*
X159600659Y-97914394D02*
G01*
X159734758Y-97955073D01*
X159858345Y-98021132D01*
X159966670Y-98110031D01*
X160055569Y-98218356D01*
X160121628Y-98341943D01*
X160162307Y-98476042D01*
X160176042Y-98615501D01*
X160162307Y-98754960D01*
X160121628Y-98889059D01*
X160055569Y-99012646D01*
X159966670Y-99120971D01*
X159858345Y-99209870D01*
X159734758Y-99275929D01*
X159600659Y-99316608D01*
X159496149Y-99326901D01*
X158105451Y-99326901D01*
X158000941Y-99316608D01*
X157866842Y-99275929D01*
X157743255Y-99209870D01*
X157634930Y-99120971D01*
X157546031Y-99012646D01*
X157479972Y-98889059D01*
X157439293Y-98754960D01*
X157425558Y-98615501D01*
X157439293Y-98476042D01*
X157479972Y-98341943D01*
X157546031Y-98218356D01*
X157634930Y-98110031D01*
X157743255Y-98021132D01*
X157866842Y-97955073D01*
X158000941Y-97914394D01*
X158105451Y-97904101D01*
X159496149Y-97904101D01*
X159600659Y-97914394D01*
X159600659Y-97914394D01*
G37*
G36*
X167220659Y-97914394D02*
G01*
X167354758Y-97955073D01*
X167478345Y-98021132D01*
X167586670Y-98110031D01*
X167675569Y-98218356D01*
X167741628Y-98341943D01*
X167782307Y-98476042D01*
X167796042Y-98615501D01*
X167782307Y-98754960D01*
X167741628Y-98889059D01*
X167675569Y-99012646D01*
X167586670Y-99120971D01*
X167478345Y-99209870D01*
X167354758Y-99275929D01*
X167220659Y-99316608D01*
X167116149Y-99326901D01*
X165725451Y-99326901D01*
X165620941Y-99316608D01*
X165486842Y-99275929D01*
X165363255Y-99209870D01*
X165254930Y-99120971D01*
X165166031Y-99012646D01*
X165099972Y-98889059D01*
X165059293Y-98754960D01*
X165045558Y-98615501D01*
X165059293Y-98476042D01*
X165099972Y-98341943D01*
X165166031Y-98218356D01*
X165254930Y-98110031D01*
X165363255Y-98021132D01*
X165486842Y-97955073D01*
X165620941Y-97914394D01*
X165725451Y-97904101D01*
X167116149Y-97904101D01*
X167220659Y-97914394D01*
X167220659Y-97914394D01*
G37*
G36*
X149951000Y-98951000D02*
G01*
X148049000Y-98951000D01*
X148049000Y-97049000D01*
X149951000Y-97049000D01*
X149951000Y-98951000D01*
X149951000Y-98951000D01*
G37*
G36*
X151817395Y-97085546D02*
G01*
X151990466Y-97157234D01*
X151990467Y-97157235D01*
X152146227Y-97261310D01*
X152278690Y-97393773D01*
X152278691Y-97393775D01*
X152382766Y-97549534D01*
X152454454Y-97722605D01*
X152491000Y-97906333D01*
X152491000Y-98093667D01*
X152454454Y-98277395D01*
X152382766Y-98450466D01*
X152365675Y-98476044D01*
X152278690Y-98606227D01*
X152146227Y-98738690D01*
X152124159Y-98753435D01*
X151990466Y-98842766D01*
X151817395Y-98914454D01*
X151633667Y-98951000D01*
X151446333Y-98951000D01*
X151262605Y-98914454D01*
X151089534Y-98842766D01*
X150955841Y-98753435D01*
X150933773Y-98738690D01*
X150801310Y-98606227D01*
X150714325Y-98476044D01*
X150697234Y-98450466D01*
X150625546Y-98277395D01*
X150589000Y-98093667D01*
X150589000Y-97906333D01*
X150625546Y-97722605D01*
X150697234Y-97549534D01*
X150801309Y-97393775D01*
X150801310Y-97393773D01*
X150933773Y-97261310D01*
X151089533Y-97157235D01*
X151089534Y-97157234D01*
X151262605Y-97085546D01*
X151446333Y-97049000D01*
X151633667Y-97049000D01*
X151817395Y-97085546D01*
X151817395Y-97085546D01*
G37*
G36*
X138649059Y-97067860D02*
G01*
X138709294Y-97092810D01*
X138785732Y-97124472D01*
X138908735Y-97206660D01*
X139013340Y-97311265D01*
X139068470Y-97393773D01*
X139095529Y-97434270D01*
X139152140Y-97570941D01*
X139181000Y-97716032D01*
X139181000Y-97863968D01*
X139166429Y-97937220D01*
X139152140Y-98009059D01*
X139095528Y-98145732D01*
X139013340Y-98268735D01*
X138908735Y-98373340D01*
X138785732Y-98455528D01*
X138785731Y-98455529D01*
X138785730Y-98455529D01*
X138649059Y-98512140D01*
X138503968Y-98541000D01*
X138356032Y-98541000D01*
X138210941Y-98512140D01*
X138074270Y-98455529D01*
X138074269Y-98455529D01*
X138074268Y-98455528D01*
X137951265Y-98373340D01*
X137846660Y-98268735D01*
X137764472Y-98145732D01*
X137707860Y-98009059D01*
X137693571Y-97937220D01*
X137679000Y-97863968D01*
X137679000Y-97716032D01*
X137707860Y-97570941D01*
X137764471Y-97434270D01*
X137791530Y-97393773D01*
X137846660Y-97311265D01*
X137951265Y-97206660D01*
X138074268Y-97124472D01*
X138150707Y-97092810D01*
X138210941Y-97067860D01*
X138356032Y-97039000D01*
X138503968Y-97039000D01*
X138649059Y-97067860D01*
X138649059Y-97067860D01*
G37*
G36*
X143583665Y-97042622D02*
G01*
X143657222Y-97049867D01*
X143798786Y-97092810D01*
X143929252Y-97162546D01*
X143959040Y-97186992D01*
X144043607Y-97256393D01*
X144109237Y-97336365D01*
X144137454Y-97370748D01*
X144207190Y-97501214D01*
X144250133Y-97642778D01*
X144264633Y-97790000D01*
X144250133Y-97937222D01*
X144207190Y-98078786D01*
X144137454Y-98209252D01*
X144129978Y-98218361D01*
X144043607Y-98323607D01*
X143983004Y-98373341D01*
X143929252Y-98417454D01*
X143798786Y-98487190D01*
X143657222Y-98530133D01*
X143583665Y-98537378D01*
X143546888Y-98541000D01*
X143473112Y-98541000D01*
X143436335Y-98537378D01*
X143362778Y-98530133D01*
X143221214Y-98487190D01*
X143090748Y-98417454D01*
X143036996Y-98373341D01*
X142976393Y-98323607D01*
X142890022Y-98218361D01*
X142882546Y-98209252D01*
X142812810Y-98078786D01*
X142769867Y-97937222D01*
X142755367Y-97790000D01*
X142769867Y-97642778D01*
X142812810Y-97501214D01*
X142882546Y-97370748D01*
X142910763Y-97336365D01*
X142976393Y-97256393D01*
X143060960Y-97186992D01*
X143090748Y-97162546D01*
X143221214Y-97092810D01*
X143362778Y-97049867D01*
X143436335Y-97042622D01*
X143473112Y-97039000D01*
X143546888Y-97039000D01*
X143583665Y-97042622D01*
X143583665Y-97042622D01*
G37*
G36*
X183186564Y-95509389D02*
G01*
X183377833Y-95588615D01*
X183377835Y-95588616D01*
X183549973Y-95703635D01*
X183696365Y-95850027D01*
X183787483Y-95986394D01*
X183811385Y-96022167D01*
X183890611Y-96213436D01*
X183931000Y-96416484D01*
X183931000Y-96623516D01*
X183890611Y-96826564D01*
X183843935Y-96939250D01*
X183811384Y-97017835D01*
X183696365Y-97189973D01*
X183549973Y-97336365D01*
X183377835Y-97451384D01*
X183377834Y-97451385D01*
X183377833Y-97451385D01*
X183186564Y-97530611D01*
X182983516Y-97571000D01*
X182776484Y-97571000D01*
X182573436Y-97530611D01*
X182382167Y-97451385D01*
X182382166Y-97451385D01*
X182382165Y-97451384D01*
X182210027Y-97336365D01*
X182063635Y-97189973D01*
X181948616Y-97017835D01*
X181916065Y-96939250D01*
X181869389Y-96826564D01*
X181829000Y-96623516D01*
X181829000Y-96416484D01*
X181869389Y-96213436D01*
X181948615Y-96022167D01*
X181972518Y-95986394D01*
X182063635Y-95850027D01*
X182210027Y-95703635D01*
X182382165Y-95588616D01*
X182382167Y-95588615D01*
X182573436Y-95509389D01*
X182776484Y-95469000D01*
X182983516Y-95469000D01*
X183186564Y-95509389D01*
X183186564Y-95509389D01*
G37*
G36*
X172793665Y-95772622D02*
G01*
X172867222Y-95779867D01*
X173008786Y-95822810D01*
X173139252Y-95892546D01*
X173169040Y-95916992D01*
X173253607Y-95986393D01*
X173323008Y-96070960D01*
X173347454Y-96100748D01*
X173417190Y-96231214D01*
X173460133Y-96372778D01*
X173474633Y-96520000D01*
X173460133Y-96667222D01*
X173417190Y-96808786D01*
X173347454Y-96939252D01*
X173323008Y-96969040D01*
X173253607Y-97053607D01*
X173169040Y-97123008D01*
X173139252Y-97147454D01*
X173008786Y-97217190D01*
X172867222Y-97260133D01*
X172793665Y-97267378D01*
X172756888Y-97271000D01*
X172683112Y-97271000D01*
X172646335Y-97267378D01*
X172572778Y-97260133D01*
X172431214Y-97217190D01*
X172300748Y-97147454D01*
X172270960Y-97123008D01*
X172186393Y-97053607D01*
X172116992Y-96969040D01*
X172092546Y-96939252D01*
X172022810Y-96808786D01*
X171979867Y-96667222D01*
X171965367Y-96520000D01*
X171979867Y-96372778D01*
X172022810Y-96231214D01*
X172092546Y-96100748D01*
X172116992Y-96070960D01*
X172186393Y-95986393D01*
X172270960Y-95916992D01*
X172300748Y-95892546D01*
X172431214Y-95822810D01*
X172572778Y-95779867D01*
X172646335Y-95772622D01*
X172683112Y-95769000D01*
X172756888Y-95769000D01*
X172793665Y-95772622D01*
X172793665Y-95772622D01*
G37*
G36*
X167220659Y-95374394D02*
G01*
X167354758Y-95415073D01*
X167478345Y-95481132D01*
X167586670Y-95570031D01*
X167675569Y-95678356D01*
X167741628Y-95801943D01*
X167782307Y-95936042D01*
X167796042Y-96075501D01*
X167782307Y-96214960D01*
X167741628Y-96349059D01*
X167675569Y-96472646D01*
X167586670Y-96580971D01*
X167478345Y-96669870D01*
X167354758Y-96735929D01*
X167220659Y-96776608D01*
X167116149Y-96786901D01*
X165725451Y-96786901D01*
X165620941Y-96776608D01*
X165486842Y-96735929D01*
X165363255Y-96669870D01*
X165254930Y-96580971D01*
X165166031Y-96472646D01*
X165099972Y-96349059D01*
X165059293Y-96214960D01*
X165045558Y-96075501D01*
X165059293Y-95936042D01*
X165099972Y-95801943D01*
X165166031Y-95678356D01*
X165254930Y-95570031D01*
X165363255Y-95481132D01*
X165486842Y-95415073D01*
X165620941Y-95374394D01*
X165725451Y-95364101D01*
X167116149Y-95364101D01*
X167220659Y-95374394D01*
X167220659Y-95374394D01*
G37*
G36*
X159600659Y-95374394D02*
G01*
X159734758Y-95415073D01*
X159858345Y-95481132D01*
X159966670Y-95570031D01*
X160055569Y-95678356D01*
X160121628Y-95801943D01*
X160162307Y-95936042D01*
X160176042Y-96075501D01*
X160162307Y-96214960D01*
X160121628Y-96349059D01*
X160055569Y-96472646D01*
X159966670Y-96580971D01*
X159858345Y-96669870D01*
X159734758Y-96735929D01*
X159600659Y-96776608D01*
X159496149Y-96786901D01*
X158105451Y-96786901D01*
X158000941Y-96776608D01*
X157866842Y-96735929D01*
X157743255Y-96669870D01*
X157634930Y-96580971D01*
X157546031Y-96472646D01*
X157479972Y-96349059D01*
X157439293Y-96214960D01*
X157425558Y-96075501D01*
X157439293Y-95936042D01*
X157479972Y-95801943D01*
X157546031Y-95678356D01*
X157634930Y-95570031D01*
X157743255Y-95481132D01*
X157866842Y-95415073D01*
X158000941Y-95374394D01*
X158105451Y-95364101D01*
X159496149Y-95364101D01*
X159600659Y-95374394D01*
X159600659Y-95374394D01*
G37*
G36*
X183186564Y-92969389D02*
G01*
X183377833Y-93048615D01*
X183377835Y-93048616D01*
X183512140Y-93138356D01*
X183549973Y-93163635D01*
X183696365Y-93310027D01*
X183811385Y-93482167D01*
X183890611Y-93673436D01*
X183931000Y-93876484D01*
X183931000Y-94083516D01*
X183890611Y-94286564D01*
X183811385Y-94477833D01*
X183811384Y-94477835D01*
X183696365Y-94649973D01*
X183549973Y-94796365D01*
X183377835Y-94911384D01*
X183377834Y-94911385D01*
X183377833Y-94911385D01*
X183186564Y-94990611D01*
X182983516Y-95031000D01*
X182776484Y-95031000D01*
X182573436Y-94990611D01*
X182382167Y-94911385D01*
X182382166Y-94911385D01*
X182382165Y-94911384D01*
X182210027Y-94796365D01*
X182063635Y-94649973D01*
X181948616Y-94477835D01*
X181948615Y-94477833D01*
X181869389Y-94286564D01*
X181829000Y-94083516D01*
X181829000Y-93876484D01*
X181869389Y-93673436D01*
X181948615Y-93482167D01*
X182063635Y-93310027D01*
X182210027Y-93163635D01*
X182247860Y-93138356D01*
X182382165Y-93048616D01*
X182382167Y-93048615D01*
X182573436Y-92969389D01*
X182776484Y-92929000D01*
X182983516Y-92929000D01*
X183186564Y-92969389D01*
X183186564Y-92969389D01*
G37*
G36*
X167220659Y-92834394D02*
G01*
X167354758Y-92875073D01*
X167478345Y-92941132D01*
X167586670Y-93030031D01*
X167675569Y-93138356D01*
X167741628Y-93261943D01*
X167782307Y-93396042D01*
X167796042Y-93535501D01*
X167782307Y-93674960D01*
X167741628Y-93809059D01*
X167675569Y-93932646D01*
X167586670Y-94040971D01*
X167478345Y-94129870D01*
X167354758Y-94195929D01*
X167220659Y-94236608D01*
X167116149Y-94246901D01*
X165725451Y-94246901D01*
X165620941Y-94236608D01*
X165486842Y-94195929D01*
X165363255Y-94129870D01*
X165254930Y-94040971D01*
X165166031Y-93932646D01*
X165099972Y-93809059D01*
X165059293Y-93674960D01*
X165045558Y-93535501D01*
X165059293Y-93396042D01*
X165099972Y-93261943D01*
X165166031Y-93138356D01*
X165254930Y-93030031D01*
X165363255Y-92941132D01*
X165486842Y-92875073D01*
X165620941Y-92834394D01*
X165725451Y-92824101D01*
X167116149Y-92824101D01*
X167220659Y-92834394D01*
X167220659Y-92834394D01*
G37*
G36*
X159600659Y-92834394D02*
G01*
X159734758Y-92875073D01*
X159858345Y-92941132D01*
X159966670Y-93030031D01*
X160055569Y-93138356D01*
X160121628Y-93261943D01*
X160162307Y-93396042D01*
X160176042Y-93535501D01*
X160162307Y-93674960D01*
X160121628Y-93809059D01*
X160055569Y-93932646D01*
X159966670Y-94040971D01*
X159858345Y-94129870D01*
X159734758Y-94195929D01*
X159600659Y-94236608D01*
X159496149Y-94246901D01*
X158105451Y-94246901D01*
X158000941Y-94236608D01*
X157866842Y-94195929D01*
X157743255Y-94129870D01*
X157634930Y-94040971D01*
X157546031Y-93932646D01*
X157479972Y-93809059D01*
X157439293Y-93674960D01*
X157425558Y-93535501D01*
X157439293Y-93396042D01*
X157479972Y-93261943D01*
X157546031Y-93138356D01*
X157634930Y-93030031D01*
X157743255Y-92941132D01*
X157866842Y-92875073D01*
X158000941Y-92834394D01*
X158105451Y-92824101D01*
X159496149Y-92824101D01*
X159600659Y-92834394D01*
X159600659Y-92834394D01*
G37*
G36*
X183186564Y-90429389D02*
G01*
X183377833Y-90508615D01*
X183377835Y-90508616D01*
X183549973Y-90623635D01*
X183696365Y-90770027D01*
X183761287Y-90867189D01*
X183811385Y-90942167D01*
X183890611Y-91133436D01*
X183931000Y-91336484D01*
X183931000Y-91543516D01*
X183890611Y-91746564D01*
X183811385Y-91937833D01*
X183811384Y-91937835D01*
X183696365Y-92109973D01*
X183549973Y-92256365D01*
X183377835Y-92371384D01*
X183377834Y-92371385D01*
X183377833Y-92371385D01*
X183186564Y-92450611D01*
X182983516Y-92491000D01*
X182776484Y-92491000D01*
X182573436Y-92450611D01*
X182382167Y-92371385D01*
X182382166Y-92371385D01*
X182382165Y-92371384D01*
X182210027Y-92256365D01*
X182063635Y-92109973D01*
X181948616Y-91937835D01*
X181948615Y-91937833D01*
X181869389Y-91746564D01*
X181829000Y-91543516D01*
X181829000Y-91336484D01*
X181869389Y-91133436D01*
X181948615Y-90942167D01*
X181998714Y-90867189D01*
X182063635Y-90770027D01*
X182210027Y-90623635D01*
X182382165Y-90508616D01*
X182382167Y-90508615D01*
X182573436Y-90429389D01*
X182776484Y-90389000D01*
X182983516Y-90389000D01*
X183186564Y-90429389D01*
X183186564Y-90429389D01*
G37*
G36*
X172939059Y-90717860D02*
G01*
X173024718Y-90753341D01*
X173075732Y-90774472D01*
X173198735Y-90856660D01*
X173303340Y-90961265D01*
X173385528Y-91084268D01*
X173385529Y-91084270D01*
X173442140Y-91220941D01*
X173471000Y-91366032D01*
X173471000Y-91513968D01*
X173455902Y-91589870D01*
X173442140Y-91659059D01*
X173385528Y-91795732D01*
X173303340Y-91918735D01*
X173198735Y-92023340D01*
X173075732Y-92105528D01*
X173075731Y-92105529D01*
X173075730Y-92105529D01*
X172939059Y-92162140D01*
X172793968Y-92191000D01*
X172646032Y-92191000D01*
X172500941Y-92162140D01*
X172364270Y-92105529D01*
X172364269Y-92105529D01*
X172364268Y-92105528D01*
X172241265Y-92023340D01*
X172136660Y-91918735D01*
X172054472Y-91795732D01*
X171997860Y-91659059D01*
X171984098Y-91589870D01*
X171969000Y-91513968D01*
X171969000Y-91366032D01*
X171997860Y-91220941D01*
X172054471Y-91084270D01*
X172054472Y-91084268D01*
X172136660Y-90961265D01*
X172241265Y-90856660D01*
X172364268Y-90774472D01*
X172415283Y-90753341D01*
X172500941Y-90717860D01*
X172646032Y-90689000D01*
X172793968Y-90689000D01*
X172939059Y-90717860D01*
X172939059Y-90717860D01*
G37*
G36*
X167220659Y-90294394D02*
G01*
X167354758Y-90335073D01*
X167478345Y-90401132D01*
X167586670Y-90490031D01*
X167675569Y-90598356D01*
X167741628Y-90721943D01*
X167782307Y-90856042D01*
X167796042Y-90995501D01*
X167782307Y-91134960D01*
X167741628Y-91269059D01*
X167675569Y-91392646D01*
X167586670Y-91500971D01*
X167478345Y-91589870D01*
X167354758Y-91655929D01*
X167220659Y-91696608D01*
X167116149Y-91706901D01*
X165725451Y-91706901D01*
X165620941Y-91696608D01*
X165486842Y-91655929D01*
X165363255Y-91589870D01*
X165254930Y-91500971D01*
X165166031Y-91392646D01*
X165099972Y-91269059D01*
X165059293Y-91134960D01*
X165045558Y-90995501D01*
X165059293Y-90856042D01*
X165099972Y-90721943D01*
X165166031Y-90598356D01*
X165254930Y-90490031D01*
X165363255Y-90401132D01*
X165486842Y-90335073D01*
X165620941Y-90294394D01*
X165725451Y-90284101D01*
X167116149Y-90284101D01*
X167220659Y-90294394D01*
X167220659Y-90294394D01*
G37*
G36*
X159600659Y-90294394D02*
G01*
X159734758Y-90335073D01*
X159858345Y-90401132D01*
X159966670Y-90490031D01*
X160055569Y-90598356D01*
X160121628Y-90721943D01*
X160162307Y-90856042D01*
X160176042Y-90995501D01*
X160162307Y-91134960D01*
X160121628Y-91269059D01*
X160055569Y-91392646D01*
X159966670Y-91500971D01*
X159858345Y-91589870D01*
X159734758Y-91655929D01*
X159600659Y-91696608D01*
X159496149Y-91706901D01*
X158105451Y-91706901D01*
X158000941Y-91696608D01*
X157866842Y-91655929D01*
X157743255Y-91589870D01*
X157634930Y-91500971D01*
X157546031Y-91392646D01*
X157479972Y-91269059D01*
X157439293Y-91134960D01*
X157425558Y-90995501D01*
X157439293Y-90856042D01*
X157479972Y-90721943D01*
X157546031Y-90598356D01*
X157634930Y-90490031D01*
X157743255Y-90401132D01*
X157866842Y-90335073D01*
X158000941Y-90294394D01*
X158105451Y-90284101D01*
X159496149Y-90284101D01*
X159600659Y-90294394D01*
X159600659Y-90294394D01*
G37*
G36*
X149951000Y-90951000D02*
G01*
X148049000Y-90951000D01*
X148049000Y-89049000D01*
X149951000Y-89049000D01*
X149951000Y-90951000D01*
X149951000Y-90951000D01*
G37*
G36*
X151817395Y-89085546D02*
G01*
X151990466Y-89157234D01*
X152064293Y-89206564D01*
X152146227Y-89261310D01*
X152278690Y-89393773D01*
X152331081Y-89472182D01*
X152382766Y-89549534D01*
X152454454Y-89722605D01*
X152491000Y-89906333D01*
X152491000Y-90093667D01*
X152454454Y-90277395D01*
X152382766Y-90450466D01*
X152377205Y-90458788D01*
X152278690Y-90606227D01*
X152146227Y-90738690D01*
X152092677Y-90774471D01*
X151990466Y-90842766D01*
X151817395Y-90914454D01*
X151633667Y-90951000D01*
X151446333Y-90951000D01*
X151262605Y-90914454D01*
X151089534Y-90842766D01*
X150987323Y-90774471D01*
X150933773Y-90738690D01*
X150801310Y-90606227D01*
X150702795Y-90458788D01*
X150697234Y-90450466D01*
X150625546Y-90277395D01*
X150589000Y-90093667D01*
X150589000Y-89906333D01*
X150625546Y-89722605D01*
X150697234Y-89549534D01*
X150748919Y-89472182D01*
X150801310Y-89393773D01*
X150933773Y-89261310D01*
X151015707Y-89206564D01*
X151089534Y-89157234D01*
X151262605Y-89085546D01*
X151446333Y-89049000D01*
X151633667Y-89049000D01*
X151817395Y-89085546D01*
X151817395Y-89085546D01*
G37*
G36*
X138649059Y-89447860D02*
G01*
X138709294Y-89472810D01*
X138785732Y-89504472D01*
X138908735Y-89586660D01*
X139013340Y-89691265D01*
X139095528Y-89814268D01*
X139095529Y-89814270D01*
X139152140Y-89950941D01*
X139181000Y-90096032D01*
X139181000Y-90243968D01*
X139166429Y-90317220D01*
X139152140Y-90389059D01*
X139095528Y-90525732D01*
X139013340Y-90648735D01*
X138908735Y-90753340D01*
X138785732Y-90835528D01*
X138785731Y-90835529D01*
X138785730Y-90835529D01*
X138649059Y-90892140D01*
X138503968Y-90921000D01*
X138356032Y-90921000D01*
X138210941Y-90892140D01*
X138074270Y-90835529D01*
X138074269Y-90835529D01*
X138074268Y-90835528D01*
X137951265Y-90753340D01*
X137846660Y-90648735D01*
X137764472Y-90525732D01*
X137707860Y-90389059D01*
X137693571Y-90317220D01*
X137679000Y-90243968D01*
X137679000Y-90096032D01*
X137707860Y-89950941D01*
X137764471Y-89814270D01*
X137764472Y-89814268D01*
X137846660Y-89691265D01*
X137951265Y-89586660D01*
X138074268Y-89504472D01*
X138150707Y-89472810D01*
X138210941Y-89447860D01*
X138356032Y-89419000D01*
X138503968Y-89419000D01*
X138649059Y-89447860D01*
X138649059Y-89447860D01*
G37*
G36*
X143583665Y-89422622D02*
G01*
X143657222Y-89429867D01*
X143798786Y-89472810D01*
X143929252Y-89542546D01*
X143959040Y-89566992D01*
X144043607Y-89636393D01*
X144109237Y-89716365D01*
X144137454Y-89750748D01*
X144207190Y-89881214D01*
X144250133Y-90022778D01*
X144264633Y-90170000D01*
X144250133Y-90317222D01*
X144207190Y-90458786D01*
X144137454Y-90589252D01*
X144123523Y-90606227D01*
X144043607Y-90703607D01*
X143983004Y-90753341D01*
X143929252Y-90797454D01*
X143798786Y-90867190D01*
X143657222Y-90910133D01*
X143583665Y-90917378D01*
X143546888Y-90921000D01*
X143473112Y-90921000D01*
X143436335Y-90917378D01*
X143362778Y-90910133D01*
X143221214Y-90867190D01*
X143090748Y-90797454D01*
X143036996Y-90753341D01*
X142976393Y-90703607D01*
X142896477Y-90606227D01*
X142882546Y-90589252D01*
X142812810Y-90458786D01*
X142769867Y-90317222D01*
X142755367Y-90170000D01*
X142769867Y-90022778D01*
X142812810Y-89881214D01*
X142882546Y-89750748D01*
X142910763Y-89716365D01*
X142976393Y-89636393D01*
X143060960Y-89566992D01*
X143090748Y-89542546D01*
X143221214Y-89472810D01*
X143362778Y-89429867D01*
X143436335Y-89422622D01*
X143473112Y-89419000D01*
X143546888Y-89419000D01*
X143583665Y-89422622D01*
X143583665Y-89422622D01*
G37*
G36*
X183186564Y-87889389D02*
G01*
X183377833Y-87968615D01*
X183377835Y-87968616D01*
X183512140Y-88058356D01*
X183549973Y-88083635D01*
X183696365Y-88230027D01*
X183811385Y-88402167D01*
X183890611Y-88593436D01*
X183931000Y-88796484D01*
X183931000Y-89003516D01*
X183890611Y-89206564D01*
X183813067Y-89393773D01*
X183811384Y-89397835D01*
X183696365Y-89569973D01*
X183549973Y-89716365D01*
X183377835Y-89831384D01*
X183377834Y-89831385D01*
X183377833Y-89831385D01*
X183186564Y-89910611D01*
X182983516Y-89951000D01*
X182776484Y-89951000D01*
X182573436Y-89910611D01*
X182382167Y-89831385D01*
X182382166Y-89831385D01*
X182382165Y-89831384D01*
X182210027Y-89716365D01*
X182063635Y-89569973D01*
X181948616Y-89397835D01*
X181946933Y-89393773D01*
X181869389Y-89206564D01*
X181829000Y-89003516D01*
X181829000Y-88796484D01*
X181869389Y-88593436D01*
X181948615Y-88402167D01*
X182063635Y-88230027D01*
X182210027Y-88083635D01*
X182247860Y-88058356D01*
X182382165Y-87968616D01*
X182382167Y-87968615D01*
X182573436Y-87889389D01*
X182776484Y-87849000D01*
X182983516Y-87849000D01*
X183186564Y-87889389D01*
X183186564Y-87889389D01*
G37*
G36*
X159600659Y-87754394D02*
G01*
X159734758Y-87795073D01*
X159858345Y-87861132D01*
X159966670Y-87950031D01*
X160055569Y-88058356D01*
X160121628Y-88181943D01*
X160162307Y-88316042D01*
X160176042Y-88455501D01*
X160162307Y-88594960D01*
X160121628Y-88729059D01*
X160055569Y-88852646D01*
X159966670Y-88960971D01*
X159858345Y-89049870D01*
X159734758Y-89115929D01*
X159600659Y-89156608D01*
X159496149Y-89166901D01*
X158105451Y-89166901D01*
X158000941Y-89156608D01*
X157866842Y-89115929D01*
X157743255Y-89049870D01*
X157634930Y-88960971D01*
X157546031Y-88852646D01*
X157479972Y-88729059D01*
X157439293Y-88594960D01*
X157425558Y-88455501D01*
X157439293Y-88316042D01*
X157479972Y-88181943D01*
X157546031Y-88058356D01*
X157634930Y-87950031D01*
X157743255Y-87861132D01*
X157866842Y-87795073D01*
X158000941Y-87754394D01*
X158105451Y-87744101D01*
X159496149Y-87744101D01*
X159600659Y-87754394D01*
X159600659Y-87754394D01*
G37*
G36*
X167220659Y-87754394D02*
G01*
X167354758Y-87795073D01*
X167478345Y-87861132D01*
X167586670Y-87950031D01*
X167675569Y-88058356D01*
X167741628Y-88181943D01*
X167782307Y-88316042D01*
X167796042Y-88455501D01*
X167782307Y-88594960D01*
X167741628Y-88729059D01*
X167675569Y-88852646D01*
X167586670Y-88960971D01*
X167478345Y-89049870D01*
X167354758Y-89115929D01*
X167220659Y-89156608D01*
X167116149Y-89166901D01*
X165725451Y-89166901D01*
X165620941Y-89156608D01*
X165486842Y-89115929D01*
X165363255Y-89049870D01*
X165254930Y-88960971D01*
X165166031Y-88852646D01*
X165099972Y-88729059D01*
X165059293Y-88594960D01*
X165045558Y-88455501D01*
X165059293Y-88316042D01*
X165099972Y-88181943D01*
X165166031Y-88058356D01*
X165254930Y-87950031D01*
X165363255Y-87861132D01*
X165486842Y-87795073D01*
X165620941Y-87754394D01*
X165725451Y-87744101D01*
X167116149Y-87744101D01*
X167220659Y-87754394D01*
X167220659Y-87754394D01*
G37*
G36*
X172939059Y-86907860D02*
G01*
X173075732Y-86964472D01*
X173198735Y-87046660D01*
X173303340Y-87151265D01*
X173303341Y-87151267D01*
X173385529Y-87274270D01*
X173442140Y-87410941D01*
X173471000Y-87556032D01*
X173471000Y-87703968D01*
X173452878Y-87795073D01*
X173442140Y-87849059D01*
X173385528Y-87985732D01*
X173303340Y-88108735D01*
X173198735Y-88213340D01*
X173075732Y-88295528D01*
X173075731Y-88295529D01*
X173075730Y-88295529D01*
X172939059Y-88352140D01*
X172793968Y-88381000D01*
X172646032Y-88381000D01*
X172500941Y-88352140D01*
X172364270Y-88295529D01*
X172364269Y-88295529D01*
X172364268Y-88295528D01*
X172241265Y-88213340D01*
X172136660Y-88108735D01*
X172054472Y-87985732D01*
X171997860Y-87849059D01*
X171987122Y-87795073D01*
X171969000Y-87703968D01*
X171969000Y-87556032D01*
X171997860Y-87410941D01*
X172054471Y-87274270D01*
X172136659Y-87151267D01*
X172136660Y-87151265D01*
X172241265Y-87046660D01*
X172364268Y-86964472D01*
X172500941Y-86907860D01*
X172646032Y-86879000D01*
X172793968Y-86879000D01*
X172939059Y-86907860D01*
X172939059Y-86907860D01*
G37*
G36*
X183186564Y-85349389D02*
G01*
X183377833Y-85428615D01*
X183377835Y-85428616D01*
X183549973Y-85543635D01*
X183696365Y-85690027D01*
X183811385Y-85862167D01*
X183890611Y-86053436D01*
X183931000Y-86256484D01*
X183931000Y-86463516D01*
X183890611Y-86666564D01*
X183811385Y-86857833D01*
X183811384Y-86857835D01*
X183696365Y-87029973D01*
X183549973Y-87176365D01*
X183377835Y-87291384D01*
X183377834Y-87291385D01*
X183377833Y-87291385D01*
X183186564Y-87370611D01*
X182983516Y-87411000D01*
X182776484Y-87411000D01*
X182573436Y-87370611D01*
X182382167Y-87291385D01*
X182382166Y-87291385D01*
X182382165Y-87291384D01*
X182210027Y-87176365D01*
X182063635Y-87029973D01*
X181948616Y-86857835D01*
X181948615Y-86857833D01*
X181869389Y-86666564D01*
X181829000Y-86463516D01*
X181829000Y-86256484D01*
X181869389Y-86053436D01*
X181948615Y-85862167D01*
X182063635Y-85690027D01*
X182210027Y-85543635D01*
X182382165Y-85428616D01*
X182382167Y-85428615D01*
X182573436Y-85349389D01*
X182776484Y-85309000D01*
X182983516Y-85309000D01*
X183186564Y-85349389D01*
X183186564Y-85349389D01*
G37*
G36*
X172793665Y-81802622D02*
G01*
X172867222Y-81809867D01*
X173008786Y-81852810D01*
X173139252Y-81922546D01*
X173169040Y-81946992D01*
X173253607Y-82016393D01*
X173323008Y-82100960D01*
X173347454Y-82130748D01*
X173417190Y-82261214D01*
X173460133Y-82402778D01*
X173474633Y-82550000D01*
X173460133Y-82697222D01*
X173417190Y-82838786D01*
X173347454Y-82969252D01*
X173323008Y-82999040D01*
X173253607Y-83083607D01*
X173169040Y-83153008D01*
X173139252Y-83177454D01*
X173008786Y-83247190D01*
X172867222Y-83290133D01*
X172793665Y-83297378D01*
X172756888Y-83301000D01*
X172683112Y-83301000D01*
X172646335Y-83297378D01*
X172572778Y-83290133D01*
X172431214Y-83247190D01*
X172300748Y-83177454D01*
X172270960Y-83153008D01*
X172186393Y-83083607D01*
X172116992Y-82999040D01*
X172092546Y-82969252D01*
X172022810Y-82838786D01*
X171979867Y-82697222D01*
X171965367Y-82550000D01*
X171979867Y-82402778D01*
X172022810Y-82261214D01*
X172092546Y-82130748D01*
X172116992Y-82100960D01*
X172186393Y-82016393D01*
X172270960Y-81946992D01*
X172300748Y-81922546D01*
X172431214Y-81852810D01*
X172572778Y-81809867D01*
X172646335Y-81802622D01*
X172683112Y-81799000D01*
X172756888Y-81799000D01*
X172793665Y-81802622D01*
X172793665Y-81802622D01*
G37*
M02*
