M48
INCH
T1C0.0236
T2C0.0276
T3C0.0315
T4C0.0320
T5C0.0354
T6C0.0394
%
G90
G05
T1
X7.2Y-3.4
X7.2Y-3.5
X7.2Y-3.6
X7.2Y-3.7
X7.2Y-3.8
X7.2Y-3.9
X7.2Y-4.0
X7.2Y-4.1
T2
X5.45Y-3.85
X5.65Y-3.85
X6.8Y-3.6
X6.8Y-3.8
X5.45Y-3.55
X5.65Y-3.55
X5.9449Y-4.0945
X5.9449Y-4.1445
X6.8Y-3.25
X6.8Y-3.45
T3
X5.95Y-4.55
X5.95Y-4.7429
X5.4331Y-4.4094
X5.5315Y-4.4094
X5.4331Y-4.6457
X5.5315Y-4.6457
T4
X6.252Y-3.4825
X6.252Y-3.5825
X6.252Y-3.6825
X6.252Y-3.7825
X6.252Y-3.8825
X6.252Y-3.9825
X6.252Y-4.0825
X6.252Y-4.1825
X6.252Y-4.2825
X6.252Y-4.3825
X6.252Y-4.4825
X6.252Y-4.5825
X6.252Y-4.6825
X6.252Y-4.7825
X6.552Y-3.4825
X6.552Y-3.5825
X6.552Y-3.6825
X6.552Y-3.7825
X6.552Y-3.8825
X6.552Y-3.9825
X6.552Y-4.0825
X6.552Y-4.1825
X6.552Y-4.2825
X6.552Y-4.3825
X6.552Y-4.4825
X6.552Y-4.5825
X6.552Y-4.6825
X6.552Y-4.7825
T5
X5.8661Y-3.5433
X5.9661Y-3.5433
X5.8661Y-3.8583
X5.9661Y-3.8583
T6
X6.8898Y-4.3031
X6.8898Y-4.4031
X6.8898Y-4.5031
X6.8898Y-4.6031
X6.8898Y-4.7031
X6.8898Y-4.8031
T0
M30
