G04 #@! TF.GenerationSoftware,KiCad,Pcbnew,(5.1.2)-1*
G04 #@! TF.CreationDate,2019-05-13T18:55:33+02:00*
G04 #@! TF.ProjectId,Dispositivo_Resp,44697370-6f73-4697-9469-766f5f526573,rev?*
G04 #@! TF.SameCoordinates,Original*
G04 #@! TF.FileFunction,Copper,L1,Top*
G04 #@! TF.FilePolarity,Positive*
%FSLAX46Y46*%
G04 Gerber Fmt 4.6, Leading zero omitted, Abs format (unit mm)*
G04 Created by KiCad (PCBNEW (5.1.2)-1) date 2019-05-13 18:55:33*
%MOMM*%
%LPD*%
G04 APERTURE LIST*
%ADD10C,1.800000*%
%ADD11R,1.800000X1.800000*%
%ADD12C,1.600000*%
%ADD13O,1.400000X1.400000*%
%ADD14C,1.400000*%
%ADD15R,1.700000X1.700000*%
%ADD16O,1.700000X1.700000*%
%ADD17O,1.000000X1.000000*%
%ADD18R,1.000000X1.000000*%
%ADD19O,2.641600X1.320800*%
%ADD20C,2.000000*%
%ADD21C,1.500000*%
%ADD22C,0.250000*%
G04 APERTURE END LIST*
D10*
X151540000Y-98000000D03*
D11*
X149000000Y-98000000D03*
D10*
X151540000Y-90000000D03*
D11*
X149000000Y-90000000D03*
D12*
X140500000Y-118000000D03*
X138000000Y-118000000D03*
X140500000Y-112000000D03*
X138000000Y-112000000D03*
D13*
X143510000Y-97790000D03*
D14*
X138430000Y-97790000D03*
D13*
X143510000Y-90170000D03*
D14*
X138430000Y-90170000D03*
D13*
X172720000Y-96520000D03*
D14*
X172720000Y-91440000D03*
D13*
X172720000Y-82550000D03*
D14*
X172720000Y-87630000D03*
D15*
X175000000Y-122000000D03*
D16*
X175000000Y-119460000D03*
X175000000Y-116920000D03*
X175000000Y-114380000D03*
X175000000Y-111840000D03*
X175000000Y-109300000D03*
D17*
X151000000Y-105270000D03*
D18*
X151000000Y-104000000D03*
D19*
X158800800Y-88455501D03*
X158800800Y-90995501D03*
X158800800Y-93535501D03*
X158800800Y-96075501D03*
X158800800Y-98615501D03*
X158800800Y-101155501D03*
X158800800Y-103695501D03*
X158800800Y-106235501D03*
X158800800Y-108775501D03*
X158800800Y-111315501D03*
X158800800Y-113855501D03*
X158800800Y-116395501D03*
X158800800Y-118935501D03*
X158800800Y-121475501D03*
X166420800Y-121475501D03*
X166420800Y-118935501D03*
X166420800Y-116395501D03*
X166420800Y-113855501D03*
X166420800Y-111315501D03*
X166420800Y-108775501D03*
X166420800Y-106235501D03*
X166420800Y-103695501D03*
X166420800Y-101155501D03*
X166420800Y-98615501D03*
X166420800Y-96075501D03*
X166420800Y-93535501D03*
X166420800Y-90995501D03*
X166420800Y-88455501D03*
D20*
X182880000Y-86360000D03*
X182880000Y-88900000D03*
X182880000Y-91440000D03*
X182880000Y-93980000D03*
X182880000Y-96520000D03*
X182880000Y-99060000D03*
X182880000Y-101600000D03*
X182880000Y-104140000D03*
D21*
X151130000Y-115570000D03*
X151130000Y-120470000D03*
D22*
X167081200Y-108775501D02*
X166420800Y-108775501D01*
X168066610Y-109760911D02*
X167081200Y-108775501D01*
X170351411Y-115555001D02*
X168066610Y-113270200D01*
X175564001Y-115555001D02*
X170351411Y-115555001D01*
X193000000Y-98119002D02*
X175564001Y-115555001D01*
X193000000Y-88720000D02*
X193000000Y-98119002D01*
X168066610Y-113270200D02*
X168066610Y-109760911D01*
X190640000Y-86360000D02*
X193000000Y-88720000D01*
X182880000Y-86360000D02*
X190640000Y-86360000D01*
X158140400Y-106235501D02*
X158800800Y-106235501D01*
X156425901Y-107950000D02*
X158140400Y-106235501D01*
X152420000Y-107950000D02*
X156425901Y-107950000D01*
X152380000Y-107910000D02*
X152420000Y-107950000D01*
X151130000Y-107910000D02*
X152380000Y-107910000D01*
X149880000Y-107910000D02*
X151130000Y-107910000D01*
X138890000Y-107910000D02*
X149880000Y-107910000D01*
X138430000Y-108370000D02*
X138890000Y-107910000D01*
X138430000Y-109220000D02*
X138430000Y-108370000D01*
X175260000Y-96520000D02*
X172720000Y-96520000D01*
X182880000Y-88900000D02*
X175260000Y-96520000D01*
X172020001Y-98756700D02*
X167081200Y-103695501D01*
X172020001Y-97219999D02*
X172020001Y-98756700D01*
X172720000Y-96520000D02*
X172020001Y-97219999D01*
X175000000Y-114380000D02*
X170380000Y-114380000D01*
X170380000Y-114380000D02*
X170000000Y-114000000D01*
X167081200Y-103695501D02*
X166420800Y-103695501D01*
X170000000Y-106614301D02*
X167081200Y-103695501D01*
X170000000Y-114000000D02*
X170000000Y-106614301D01*
X173000000Y-96240000D02*
X172720000Y-96520000D01*
X138000000Y-118000000D02*
X138000000Y-112000000D01*
X138000000Y-109650000D02*
X138430000Y-109220000D01*
X138000000Y-112000000D02*
X138000000Y-109650000D01*
X137730001Y-98489999D02*
X137730001Y-106730001D01*
X138430000Y-97790000D02*
X137730001Y-98489999D01*
X138890000Y-107890000D02*
X138890000Y-107910000D01*
X137730001Y-106730001D02*
X138890000Y-107890000D01*
X138430000Y-97790000D02*
X137000000Y-96360000D01*
X137000000Y-91600000D02*
X138430000Y-90170000D01*
X137000000Y-96360000D02*
X137000000Y-91600000D01*
X151130000Y-115570000D02*
X153670000Y-115570000D01*
X153670000Y-115570000D02*
X154940000Y-114300000D01*
X158140400Y-108775501D02*
X158800800Y-108775501D01*
X154940000Y-111975901D02*
X158140400Y-108775501D01*
X154940000Y-114300000D02*
X154940000Y-111975901D01*
X147560000Y-112000000D02*
X140500000Y-112000000D01*
X151130000Y-115570000D02*
X147560000Y-112000000D01*
X151130000Y-120470000D02*
X155120000Y-120470000D01*
X155120000Y-120470000D02*
X156210000Y-119380000D01*
X158140400Y-111315501D02*
X158800800Y-111315501D01*
X156210000Y-113245901D02*
X158140400Y-111315501D01*
X156210000Y-119380000D02*
X156210000Y-113245901D01*
X150950000Y-120650000D02*
X151130000Y-120470000D01*
X148660000Y-118000000D02*
X140500000Y-118000000D01*
X151130000Y-120470000D02*
X148660000Y-118000000D01*
X148830000Y-90170000D02*
X149000000Y-90000000D01*
X143510000Y-90170000D02*
X148830000Y-90170000D01*
X158140400Y-98615501D02*
X158800800Y-98615501D01*
X151540000Y-90000000D02*
X151540000Y-92015101D01*
X151540000Y-92015101D02*
X158140400Y-98615501D01*
X158140400Y-101155501D02*
X158800800Y-101155501D01*
X154695501Y-101155501D02*
X158800800Y-101155501D01*
X151540000Y-98000000D02*
X154695501Y-101155501D01*
X148790000Y-97790000D02*
X149000000Y-98000000D01*
X143510000Y-97790000D02*
X144790000Y-97790000D01*
X145000000Y-98000000D02*
X149000000Y-98000000D01*
X144790000Y-97790000D02*
X145000000Y-98000000D01*
X175000000Y-119460000D02*
X170460000Y-119460000D01*
X170460000Y-119460000D02*
X169000000Y-118000000D01*
X167081200Y-116395501D02*
X166420800Y-116395501D01*
X168685699Y-118000000D02*
X167081200Y-116395501D01*
X169000000Y-118000000D02*
X168685699Y-118000000D01*
X168015501Y-113855501D02*
X166420800Y-113855501D01*
X175000000Y-116920000D02*
X171080000Y-116920000D01*
X171080000Y-116920000D02*
X168015501Y-113855501D01*
X171894499Y-88455501D02*
X172720000Y-87630000D01*
X166420800Y-88455501D02*
X171894499Y-88455501D01*
X166865299Y-91440000D02*
X166420800Y-90995501D01*
X172720000Y-91440000D02*
X166865299Y-91440000D01*
M02*
