M48
INCH
T1C0.0315
T2C0.0320
T3C0.0354
T4C0.0394
%
G90
G05
T1
X5.4331Y-3.622
X5.4331Y-4.4094
X5.4331Y-4.6457
X5.5315Y-4.6457
X5.95Y-4.55
X5.95Y-4.7429
X5.4331Y-3.85
X5.7331Y-3.85
X5.7331Y-3.622
X5.5315Y-4.4094
T2
X6.252Y-3.4825
X6.252Y-3.5825
X6.252Y-3.6825
X6.252Y-3.7825
X6.252Y-3.8825
X6.252Y-3.9825
X6.252Y-4.0825
X6.252Y-4.1825
X6.252Y-4.2825
X6.252Y-4.3825
X6.252Y-4.4825
X6.252Y-4.5825
X6.252Y-4.6825
X6.252Y-4.7825
X6.552Y-3.4825
X6.552Y-3.5825
X6.552Y-3.6825
X6.552Y-3.7825
X6.552Y-3.8825
X6.552Y-3.9825
X6.552Y-4.0825
X6.552Y-4.1825
X6.552Y-4.2825
X6.552Y-4.3825
X6.552Y-4.4825
X6.552Y-4.5825
X6.552Y-4.6825
X6.552Y-4.7825
T3
X5.8661Y-3.8583
X5.9661Y-3.8583
X5.8661Y-3.5433
X5.9661Y-3.5433
T4
X5.9449Y-4.0945
X5.9449Y-4.1945
X7.0472Y-3.1976
X7.0472Y-3.2976
X7.0472Y-3.3976
X7.0472Y-3.4976
X7.0472Y-3.5976
X7.0472Y-3.6976
X7.0472Y-3.7976
X7.0472Y-3.8976
X6.8898Y-4.3031
X6.8898Y-4.4031
X6.8898Y-4.5031
X6.8898Y-4.6031
X6.8898Y-4.7031
X6.8898Y-4.8031
T0
M30
