G04 #@! TF.GenerationSoftware,KiCad,Pcbnew,(5.1.2)-1*
G04 #@! TF.CreationDate,2019-05-27T16:10:05+02:00*
G04 #@! TF.ProjectId,Dispositivo_Resp,44697370-6f73-4697-9469-766f5f526573,rev?*
G04 #@! TF.SameCoordinates,Original*
G04 #@! TF.FileFunction,Soldermask,Top*
G04 #@! TF.FilePolarity,Negative*
%FSLAX46Y46*%
G04 Gerber Fmt 4.6, Leading zero omitted, Abs format (unit mm)*
G04 Created by KiCad (PCBNEW (5.1.2)-1) date 2019-05-27 16:10:05*
%MOMM*%
%LPD*%
G04 APERTURE LIST*
%ADD10C,0.100000*%
G04 APERTURE END LIST*
D10*
G36*
X175901000Y-122901000D02*
G01*
X174099000Y-122901000D01*
X174099000Y-121099000D01*
X175901000Y-121099000D01*
X175901000Y-122901000D01*
X175901000Y-122901000D01*
G37*
G36*
X167220659Y-120774394D02*
G01*
X167354758Y-120815073D01*
X167478345Y-120881132D01*
X167586670Y-120970031D01*
X167675569Y-121078356D01*
X167741628Y-121201943D01*
X167782307Y-121336042D01*
X167796042Y-121475501D01*
X167782307Y-121614960D01*
X167741628Y-121749059D01*
X167675569Y-121872646D01*
X167586670Y-121980971D01*
X167478345Y-122069870D01*
X167354758Y-122135929D01*
X167220659Y-122176608D01*
X167116149Y-122186901D01*
X165725451Y-122186901D01*
X165620941Y-122176608D01*
X165486842Y-122135929D01*
X165363255Y-122069870D01*
X165254930Y-121980971D01*
X165166031Y-121872646D01*
X165099972Y-121749059D01*
X165059293Y-121614960D01*
X165045558Y-121475501D01*
X165059293Y-121336042D01*
X165099972Y-121201943D01*
X165166031Y-121078356D01*
X165254930Y-120970031D01*
X165363255Y-120881132D01*
X165486842Y-120815073D01*
X165620941Y-120774394D01*
X165725451Y-120764101D01*
X167116149Y-120764101D01*
X167220659Y-120774394D01*
X167220659Y-120774394D01*
G37*
G36*
X159600659Y-120774394D02*
G01*
X159734758Y-120815073D01*
X159858345Y-120881132D01*
X159966670Y-120970031D01*
X160055569Y-121078356D01*
X160121628Y-121201943D01*
X160162307Y-121336042D01*
X160176042Y-121475501D01*
X160162307Y-121614960D01*
X160121628Y-121749059D01*
X160055569Y-121872646D01*
X159966670Y-121980971D01*
X159858345Y-122069870D01*
X159734758Y-122135929D01*
X159600659Y-122176608D01*
X159496149Y-122186901D01*
X158105451Y-122186901D01*
X158000941Y-122176608D01*
X157866842Y-122135929D01*
X157743255Y-122069870D01*
X157634930Y-121980971D01*
X157546031Y-121872646D01*
X157479972Y-121749059D01*
X157439293Y-121614960D01*
X157425558Y-121475501D01*
X157439293Y-121336042D01*
X157479972Y-121201943D01*
X157546031Y-121078356D01*
X157634930Y-120970031D01*
X157743255Y-120881132D01*
X157866842Y-120815073D01*
X158000941Y-120774394D01*
X158105451Y-120764101D01*
X159496149Y-120764101D01*
X159600659Y-120774394D01*
X159600659Y-120774394D01*
G37*
G36*
X151363642Y-119699781D02*
G01*
X151509414Y-119760162D01*
X151509416Y-119760163D01*
X151640608Y-119847822D01*
X151752178Y-119959392D01*
X151839837Y-120090584D01*
X151839838Y-120090586D01*
X151900219Y-120236358D01*
X151931000Y-120391107D01*
X151931000Y-120548893D01*
X151900219Y-120703642D01*
X151839838Y-120849414D01*
X151839837Y-120849416D01*
X151752178Y-120980608D01*
X151640608Y-121092178D01*
X151509416Y-121179837D01*
X151509415Y-121179838D01*
X151509414Y-121179838D01*
X151363642Y-121240219D01*
X151208893Y-121271000D01*
X151051107Y-121271000D01*
X150896358Y-121240219D01*
X150750586Y-121179838D01*
X150750585Y-121179838D01*
X150750584Y-121179837D01*
X150619392Y-121092178D01*
X150507822Y-120980608D01*
X150420163Y-120849416D01*
X150420162Y-120849414D01*
X150359781Y-120703642D01*
X150329000Y-120548893D01*
X150329000Y-120391107D01*
X150359781Y-120236358D01*
X150420162Y-120090586D01*
X150420163Y-120090584D01*
X150507822Y-119959392D01*
X150619392Y-119847822D01*
X150750584Y-119760163D01*
X150750586Y-119760162D01*
X150896358Y-119699781D01*
X151051107Y-119669000D01*
X151208893Y-119669000D01*
X151363642Y-119699781D01*
X151363642Y-119699781D01*
G37*
G36*
X175110442Y-118565518D02*
G01*
X175176627Y-118572037D01*
X175346466Y-118623557D01*
X175502991Y-118707222D01*
X175538729Y-118736552D01*
X175640186Y-118819814D01*
X175723448Y-118921271D01*
X175752778Y-118957009D01*
X175836443Y-119113534D01*
X175887963Y-119283373D01*
X175905359Y-119460000D01*
X175887963Y-119636627D01*
X175836443Y-119806466D01*
X175752778Y-119962991D01*
X175723448Y-119998729D01*
X175640186Y-120100186D01*
X175538729Y-120183448D01*
X175502991Y-120212778D01*
X175346466Y-120296443D01*
X175176627Y-120347963D01*
X175110442Y-120354482D01*
X175044260Y-120361000D01*
X174955740Y-120361000D01*
X174889558Y-120354482D01*
X174823373Y-120347963D01*
X174653534Y-120296443D01*
X174497009Y-120212778D01*
X174461271Y-120183448D01*
X174359814Y-120100186D01*
X174276552Y-119998729D01*
X174247222Y-119962991D01*
X174163557Y-119806466D01*
X174112037Y-119636627D01*
X174094641Y-119460000D01*
X174112037Y-119283373D01*
X174163557Y-119113534D01*
X174247222Y-118957009D01*
X174276552Y-118921271D01*
X174359814Y-118819814D01*
X174461271Y-118736552D01*
X174497009Y-118707222D01*
X174653534Y-118623557D01*
X174823373Y-118572037D01*
X174889558Y-118565518D01*
X174955740Y-118559000D01*
X175044260Y-118559000D01*
X175110442Y-118565518D01*
X175110442Y-118565518D01*
G37*
G36*
X167220659Y-118234394D02*
G01*
X167354758Y-118275073D01*
X167478345Y-118341132D01*
X167586670Y-118430031D01*
X167675569Y-118538356D01*
X167741628Y-118661943D01*
X167782307Y-118796042D01*
X167796042Y-118935501D01*
X167782307Y-119074960D01*
X167741628Y-119209059D01*
X167675569Y-119332646D01*
X167586670Y-119440971D01*
X167478345Y-119529870D01*
X167354758Y-119595929D01*
X167220659Y-119636608D01*
X167116149Y-119646901D01*
X165725451Y-119646901D01*
X165620941Y-119636608D01*
X165486842Y-119595929D01*
X165363255Y-119529870D01*
X165254930Y-119440971D01*
X165166031Y-119332646D01*
X165099972Y-119209059D01*
X165059293Y-119074960D01*
X165045558Y-118935501D01*
X165059293Y-118796042D01*
X165099972Y-118661943D01*
X165166031Y-118538356D01*
X165254930Y-118430031D01*
X165363255Y-118341132D01*
X165486842Y-118275073D01*
X165620941Y-118234394D01*
X165725451Y-118224101D01*
X167116149Y-118224101D01*
X167220659Y-118234394D01*
X167220659Y-118234394D01*
G37*
G36*
X159600659Y-118234394D02*
G01*
X159734758Y-118275073D01*
X159858345Y-118341132D01*
X159966670Y-118430031D01*
X160055569Y-118538356D01*
X160121628Y-118661943D01*
X160162307Y-118796042D01*
X160176042Y-118935501D01*
X160162307Y-119074960D01*
X160121628Y-119209059D01*
X160055569Y-119332646D01*
X159966670Y-119440971D01*
X159858345Y-119529870D01*
X159734758Y-119595929D01*
X159600659Y-119636608D01*
X159496149Y-119646901D01*
X158105451Y-119646901D01*
X158000941Y-119636608D01*
X157866842Y-119595929D01*
X157743255Y-119529870D01*
X157634930Y-119440971D01*
X157546031Y-119332646D01*
X157479972Y-119209059D01*
X157439293Y-119074960D01*
X157425558Y-118935501D01*
X157439293Y-118796042D01*
X157479972Y-118661943D01*
X157546031Y-118538356D01*
X157634930Y-118430031D01*
X157743255Y-118341132D01*
X157866842Y-118275073D01*
X158000941Y-118234394D01*
X158105451Y-118224101D01*
X159496149Y-118224101D01*
X159600659Y-118234394D01*
X159600659Y-118234394D01*
G37*
G36*
X138248228Y-117181703D02*
G01*
X138403100Y-117245853D01*
X138542481Y-117338985D01*
X138661015Y-117457519D01*
X138754147Y-117596900D01*
X138818297Y-117751772D01*
X138851000Y-117916184D01*
X138851000Y-118083816D01*
X138818297Y-118248228D01*
X138754147Y-118403100D01*
X138661015Y-118542481D01*
X138542481Y-118661015D01*
X138403100Y-118754147D01*
X138248228Y-118818297D01*
X138083816Y-118851000D01*
X137916184Y-118851000D01*
X137751772Y-118818297D01*
X137596900Y-118754147D01*
X137457519Y-118661015D01*
X137338985Y-118542481D01*
X137245853Y-118403100D01*
X137181703Y-118248228D01*
X137149000Y-118083816D01*
X137149000Y-117916184D01*
X137181703Y-117751772D01*
X137245853Y-117596900D01*
X137338985Y-117457519D01*
X137457519Y-117338985D01*
X137596900Y-117245853D01*
X137751772Y-117181703D01*
X137916184Y-117149000D01*
X138083816Y-117149000D01*
X138248228Y-117181703D01*
X138248228Y-117181703D01*
G37*
G36*
X140748228Y-117181703D02*
G01*
X140903100Y-117245853D01*
X141042481Y-117338985D01*
X141161015Y-117457519D01*
X141254147Y-117596900D01*
X141318297Y-117751772D01*
X141351000Y-117916184D01*
X141351000Y-118083816D01*
X141318297Y-118248228D01*
X141254147Y-118403100D01*
X141161015Y-118542481D01*
X141042481Y-118661015D01*
X140903100Y-118754147D01*
X140748228Y-118818297D01*
X140583816Y-118851000D01*
X140416184Y-118851000D01*
X140251772Y-118818297D01*
X140096900Y-118754147D01*
X139957519Y-118661015D01*
X139838985Y-118542481D01*
X139745853Y-118403100D01*
X139681703Y-118248228D01*
X139649000Y-118083816D01*
X139649000Y-117916184D01*
X139681703Y-117751772D01*
X139745853Y-117596900D01*
X139838985Y-117457519D01*
X139957519Y-117338985D01*
X140096900Y-117245853D01*
X140251772Y-117181703D01*
X140416184Y-117149000D01*
X140583816Y-117149000D01*
X140748228Y-117181703D01*
X140748228Y-117181703D01*
G37*
G36*
X175110443Y-116025519D02*
G01*
X175176627Y-116032037D01*
X175346466Y-116083557D01*
X175502991Y-116167222D01*
X175533400Y-116192178D01*
X175640186Y-116279814D01*
X175689758Y-116340219D01*
X175752778Y-116417009D01*
X175836443Y-116573534D01*
X175887963Y-116743373D01*
X175905359Y-116920000D01*
X175887963Y-117096627D01*
X175836443Y-117266466D01*
X175752778Y-117422991D01*
X175724441Y-117457519D01*
X175640186Y-117560186D01*
X175538729Y-117643448D01*
X175502991Y-117672778D01*
X175346466Y-117756443D01*
X175176627Y-117807963D01*
X175110443Y-117814481D01*
X175044260Y-117821000D01*
X174955740Y-117821000D01*
X174889557Y-117814481D01*
X174823373Y-117807963D01*
X174653534Y-117756443D01*
X174497009Y-117672778D01*
X174461271Y-117643448D01*
X174359814Y-117560186D01*
X174275559Y-117457519D01*
X174247222Y-117422991D01*
X174163557Y-117266466D01*
X174112037Y-117096627D01*
X174094641Y-116920000D01*
X174112037Y-116743373D01*
X174163557Y-116573534D01*
X174247222Y-116417009D01*
X174310242Y-116340219D01*
X174359814Y-116279814D01*
X174466600Y-116192178D01*
X174497009Y-116167222D01*
X174653534Y-116083557D01*
X174823373Y-116032037D01*
X174889557Y-116025519D01*
X174955740Y-116019000D01*
X175044260Y-116019000D01*
X175110443Y-116025519D01*
X175110443Y-116025519D01*
G37*
G36*
X167220659Y-115694394D02*
G01*
X167354758Y-115735073D01*
X167478345Y-115801132D01*
X167586670Y-115890031D01*
X167675569Y-115998356D01*
X167741628Y-116121943D01*
X167782307Y-116256042D01*
X167796042Y-116395501D01*
X167782307Y-116534960D01*
X167741628Y-116669059D01*
X167675569Y-116792646D01*
X167586670Y-116900971D01*
X167478345Y-116989870D01*
X167354758Y-117055929D01*
X167220659Y-117096608D01*
X167116149Y-117106901D01*
X165725451Y-117106901D01*
X165620941Y-117096608D01*
X165486842Y-117055929D01*
X165363255Y-116989870D01*
X165254930Y-116900971D01*
X165166031Y-116792646D01*
X165099972Y-116669059D01*
X165059293Y-116534960D01*
X165045558Y-116395501D01*
X165059293Y-116256042D01*
X165099972Y-116121943D01*
X165166031Y-115998356D01*
X165254930Y-115890031D01*
X165363255Y-115801132D01*
X165486842Y-115735073D01*
X165620941Y-115694394D01*
X165725451Y-115684101D01*
X167116149Y-115684101D01*
X167220659Y-115694394D01*
X167220659Y-115694394D01*
G37*
G36*
X159600659Y-115694394D02*
G01*
X159734758Y-115735073D01*
X159858345Y-115801132D01*
X159966670Y-115890031D01*
X160055569Y-115998356D01*
X160121628Y-116121943D01*
X160162307Y-116256042D01*
X160176042Y-116395501D01*
X160162307Y-116534960D01*
X160121628Y-116669059D01*
X160055569Y-116792646D01*
X159966670Y-116900971D01*
X159858345Y-116989870D01*
X159734758Y-117055929D01*
X159600659Y-117096608D01*
X159496149Y-117106901D01*
X158105451Y-117106901D01*
X158000941Y-117096608D01*
X157866842Y-117055929D01*
X157743255Y-116989870D01*
X157634930Y-116900971D01*
X157546031Y-116792646D01*
X157479972Y-116669059D01*
X157439293Y-116534960D01*
X157425558Y-116395501D01*
X157439293Y-116256042D01*
X157479972Y-116121943D01*
X157546031Y-115998356D01*
X157634930Y-115890031D01*
X157743255Y-115801132D01*
X157866842Y-115735073D01*
X158000941Y-115694394D01*
X158105451Y-115684101D01*
X159496149Y-115684101D01*
X159600659Y-115694394D01*
X159600659Y-115694394D01*
G37*
G36*
X151363642Y-114799781D02*
G01*
X151509414Y-114860162D01*
X151509416Y-114860163D01*
X151640608Y-114947822D01*
X151752178Y-115059392D01*
X151801213Y-115132779D01*
X151839838Y-115190586D01*
X151900219Y-115336358D01*
X151931000Y-115491107D01*
X151931000Y-115648893D01*
X151900219Y-115803642D01*
X151839838Y-115949414D01*
X151839837Y-115949416D01*
X151752178Y-116080608D01*
X151640608Y-116192178D01*
X151509416Y-116279837D01*
X151509415Y-116279838D01*
X151509414Y-116279838D01*
X151363642Y-116340219D01*
X151208893Y-116371000D01*
X151051107Y-116371000D01*
X150896358Y-116340219D01*
X150750586Y-116279838D01*
X150750585Y-116279838D01*
X150750584Y-116279837D01*
X150619392Y-116192178D01*
X150507822Y-116080608D01*
X150420163Y-115949416D01*
X150420162Y-115949414D01*
X150359781Y-115803642D01*
X150329000Y-115648893D01*
X150329000Y-115491107D01*
X150359781Y-115336358D01*
X150420162Y-115190586D01*
X150458787Y-115132779D01*
X150507822Y-115059392D01*
X150619392Y-114947822D01*
X150750584Y-114860163D01*
X150750586Y-114860162D01*
X150896358Y-114799781D01*
X151051107Y-114769000D01*
X151208893Y-114769000D01*
X151363642Y-114799781D01*
X151363642Y-114799781D01*
G37*
G36*
X175110443Y-113485519D02*
G01*
X175176627Y-113492037D01*
X175346466Y-113543557D01*
X175502991Y-113627222D01*
X175538729Y-113656552D01*
X175640186Y-113739814D01*
X175723448Y-113841271D01*
X175752778Y-113877009D01*
X175836443Y-114033534D01*
X175887963Y-114203373D01*
X175905359Y-114380000D01*
X175887963Y-114556627D01*
X175836443Y-114726466D01*
X175752778Y-114882991D01*
X175723448Y-114918729D01*
X175640186Y-115020186D01*
X175538729Y-115103448D01*
X175502991Y-115132778D01*
X175346466Y-115216443D01*
X175176627Y-115267963D01*
X175110442Y-115274482D01*
X175044260Y-115281000D01*
X174955740Y-115281000D01*
X174889558Y-115274482D01*
X174823373Y-115267963D01*
X174653534Y-115216443D01*
X174497009Y-115132778D01*
X174461271Y-115103448D01*
X174359814Y-115020186D01*
X174276552Y-114918729D01*
X174247222Y-114882991D01*
X174163557Y-114726466D01*
X174112037Y-114556627D01*
X174094641Y-114380000D01*
X174112037Y-114203373D01*
X174163557Y-114033534D01*
X174247222Y-113877009D01*
X174276552Y-113841271D01*
X174359814Y-113739814D01*
X174461271Y-113656552D01*
X174497009Y-113627222D01*
X174653534Y-113543557D01*
X174823373Y-113492037D01*
X174889557Y-113485519D01*
X174955740Y-113479000D01*
X175044260Y-113479000D01*
X175110443Y-113485519D01*
X175110443Y-113485519D01*
G37*
G36*
X159600659Y-113154394D02*
G01*
X159734758Y-113195073D01*
X159858345Y-113261132D01*
X159966670Y-113350031D01*
X160055569Y-113458356D01*
X160121628Y-113581943D01*
X160162307Y-113716042D01*
X160176042Y-113855501D01*
X160162307Y-113994960D01*
X160121628Y-114129059D01*
X160055569Y-114252646D01*
X159966670Y-114360971D01*
X159858345Y-114449870D01*
X159734758Y-114515929D01*
X159600659Y-114556608D01*
X159496149Y-114566901D01*
X158105451Y-114566901D01*
X158000941Y-114556608D01*
X157866842Y-114515929D01*
X157743255Y-114449870D01*
X157634930Y-114360971D01*
X157546031Y-114252646D01*
X157479972Y-114129059D01*
X157439293Y-113994960D01*
X157425558Y-113855501D01*
X157439293Y-113716042D01*
X157479972Y-113581943D01*
X157546031Y-113458356D01*
X157634930Y-113350031D01*
X157743255Y-113261132D01*
X157866842Y-113195073D01*
X158000941Y-113154394D01*
X158105451Y-113144101D01*
X159496149Y-113144101D01*
X159600659Y-113154394D01*
X159600659Y-113154394D01*
G37*
G36*
X167220659Y-113154394D02*
G01*
X167354758Y-113195073D01*
X167478345Y-113261132D01*
X167586670Y-113350031D01*
X167675569Y-113458356D01*
X167741628Y-113581943D01*
X167782307Y-113716042D01*
X167796042Y-113855501D01*
X167782307Y-113994960D01*
X167741628Y-114129059D01*
X167675569Y-114252646D01*
X167586670Y-114360971D01*
X167478345Y-114449870D01*
X167354758Y-114515929D01*
X167220659Y-114556608D01*
X167116149Y-114566901D01*
X165725451Y-114566901D01*
X165620941Y-114556608D01*
X165486842Y-114515929D01*
X165363255Y-114449870D01*
X165254930Y-114360971D01*
X165166031Y-114252646D01*
X165099972Y-114129059D01*
X165059293Y-113994960D01*
X165045558Y-113855501D01*
X165059293Y-113716042D01*
X165099972Y-113581943D01*
X165166031Y-113458356D01*
X165254930Y-113350031D01*
X165363255Y-113261132D01*
X165486842Y-113195073D01*
X165620941Y-113154394D01*
X165725451Y-113144101D01*
X167116149Y-113144101D01*
X167220659Y-113154394D01*
X167220659Y-113154394D01*
G37*
G36*
X140748228Y-111181703D02*
G01*
X140903100Y-111245853D01*
X141042481Y-111338985D01*
X141161015Y-111457519D01*
X141254147Y-111596900D01*
X141318297Y-111751772D01*
X141351000Y-111916184D01*
X141351000Y-112083816D01*
X141318297Y-112248228D01*
X141254147Y-112403100D01*
X141161015Y-112542481D01*
X141042481Y-112661015D01*
X140903100Y-112754147D01*
X140748228Y-112818297D01*
X140583816Y-112851000D01*
X140416184Y-112851000D01*
X140251772Y-112818297D01*
X140096900Y-112754147D01*
X139957519Y-112661015D01*
X139838985Y-112542481D01*
X139745853Y-112403100D01*
X139681703Y-112248228D01*
X139649000Y-112083816D01*
X139649000Y-111916184D01*
X139681703Y-111751772D01*
X139745853Y-111596900D01*
X139838985Y-111457519D01*
X139957519Y-111338985D01*
X140096900Y-111245853D01*
X140251772Y-111181703D01*
X140416184Y-111149000D01*
X140583816Y-111149000D01*
X140748228Y-111181703D01*
X140748228Y-111181703D01*
G37*
G36*
X138248228Y-111181703D02*
G01*
X138403100Y-111245853D01*
X138542481Y-111338985D01*
X138661015Y-111457519D01*
X138754147Y-111596900D01*
X138818297Y-111751772D01*
X138851000Y-111916184D01*
X138851000Y-112083816D01*
X138818297Y-112248228D01*
X138754147Y-112403100D01*
X138661015Y-112542481D01*
X138542481Y-112661015D01*
X138403100Y-112754147D01*
X138248228Y-112818297D01*
X138083816Y-112851000D01*
X137916184Y-112851000D01*
X137751772Y-112818297D01*
X137596900Y-112754147D01*
X137457519Y-112661015D01*
X137338985Y-112542481D01*
X137245853Y-112403100D01*
X137181703Y-112248228D01*
X137149000Y-112083816D01*
X137149000Y-111916184D01*
X137181703Y-111751772D01*
X137245853Y-111596900D01*
X137338985Y-111457519D01*
X137457519Y-111338985D01*
X137596900Y-111245853D01*
X137751772Y-111181703D01*
X137916184Y-111149000D01*
X138083816Y-111149000D01*
X138248228Y-111181703D01*
X138248228Y-111181703D01*
G37*
G36*
X175110442Y-110945518D02*
G01*
X175176627Y-110952037D01*
X175346466Y-111003557D01*
X175502991Y-111087222D01*
X175538729Y-111116552D01*
X175640186Y-111199814D01*
X175723448Y-111301271D01*
X175752778Y-111337009D01*
X175836443Y-111493534D01*
X175887963Y-111663373D01*
X175905359Y-111840000D01*
X175887963Y-112016627D01*
X175836443Y-112186466D01*
X175752778Y-112342991D01*
X175723448Y-112378729D01*
X175640186Y-112480186D01*
X175564279Y-112542480D01*
X175502991Y-112592778D01*
X175346466Y-112676443D01*
X175176627Y-112727963D01*
X175110443Y-112734481D01*
X175044260Y-112741000D01*
X174955740Y-112741000D01*
X174889557Y-112734481D01*
X174823373Y-112727963D01*
X174653534Y-112676443D01*
X174497009Y-112592778D01*
X174435721Y-112542480D01*
X174359814Y-112480186D01*
X174276552Y-112378729D01*
X174247222Y-112342991D01*
X174163557Y-112186466D01*
X174112037Y-112016627D01*
X174094641Y-111840000D01*
X174112037Y-111663373D01*
X174163557Y-111493534D01*
X174247222Y-111337009D01*
X174276552Y-111301271D01*
X174359814Y-111199814D01*
X174461271Y-111116552D01*
X174497009Y-111087222D01*
X174653534Y-111003557D01*
X174823373Y-110952037D01*
X174889558Y-110945518D01*
X174955740Y-110939000D01*
X175044260Y-110939000D01*
X175110442Y-110945518D01*
X175110442Y-110945518D01*
G37*
G36*
X167220659Y-110614394D02*
G01*
X167354758Y-110655073D01*
X167478345Y-110721132D01*
X167586670Y-110810031D01*
X167675569Y-110918356D01*
X167741628Y-111041943D01*
X167782307Y-111176042D01*
X167796042Y-111315501D01*
X167782307Y-111454960D01*
X167741628Y-111589059D01*
X167675569Y-111712646D01*
X167586670Y-111820971D01*
X167478345Y-111909870D01*
X167354758Y-111975929D01*
X167220659Y-112016608D01*
X167116149Y-112026901D01*
X165725451Y-112026901D01*
X165620941Y-112016608D01*
X165486842Y-111975929D01*
X165363255Y-111909870D01*
X165254930Y-111820971D01*
X165166031Y-111712646D01*
X165099972Y-111589059D01*
X165059293Y-111454960D01*
X165045558Y-111315501D01*
X165059293Y-111176042D01*
X165099972Y-111041943D01*
X165166031Y-110918356D01*
X165254930Y-110810031D01*
X165363255Y-110721132D01*
X165486842Y-110655073D01*
X165620941Y-110614394D01*
X165725451Y-110604101D01*
X167116149Y-110604101D01*
X167220659Y-110614394D01*
X167220659Y-110614394D01*
G37*
G36*
X159600659Y-110614394D02*
G01*
X159734758Y-110655073D01*
X159858345Y-110721132D01*
X159966670Y-110810031D01*
X160055569Y-110918356D01*
X160121628Y-111041943D01*
X160162307Y-111176042D01*
X160176042Y-111315501D01*
X160162307Y-111454960D01*
X160121628Y-111589059D01*
X160055569Y-111712646D01*
X159966670Y-111820971D01*
X159858345Y-111909870D01*
X159734758Y-111975929D01*
X159600659Y-112016608D01*
X159496149Y-112026901D01*
X158105451Y-112026901D01*
X158000941Y-112016608D01*
X157866842Y-111975929D01*
X157743255Y-111909870D01*
X157634930Y-111820971D01*
X157546031Y-111712646D01*
X157479972Y-111589059D01*
X157439293Y-111454960D01*
X157425558Y-111315501D01*
X157439293Y-111176042D01*
X157479972Y-111041943D01*
X157546031Y-110918356D01*
X157634930Y-110810031D01*
X157743255Y-110721132D01*
X157866842Y-110655073D01*
X158000941Y-110614394D01*
X158105451Y-110604101D01*
X159496149Y-110604101D01*
X159600659Y-110614394D01*
X159600659Y-110614394D01*
G37*
G36*
X175110442Y-108405518D02*
G01*
X175176627Y-108412037D01*
X175346466Y-108463557D01*
X175502991Y-108547222D01*
X175538729Y-108576552D01*
X175640186Y-108659814D01*
X175723448Y-108761271D01*
X175752778Y-108797009D01*
X175836443Y-108953534D01*
X175887963Y-109123373D01*
X175905359Y-109300000D01*
X175887963Y-109476627D01*
X175836443Y-109646466D01*
X175752778Y-109802991D01*
X175723448Y-109838729D01*
X175640186Y-109940186D01*
X175538729Y-110023448D01*
X175502991Y-110052778D01*
X175346466Y-110136443D01*
X175176627Y-110187963D01*
X175110443Y-110194481D01*
X175044260Y-110201000D01*
X174955740Y-110201000D01*
X174889557Y-110194481D01*
X174823373Y-110187963D01*
X174653534Y-110136443D01*
X174497009Y-110052778D01*
X174461271Y-110023448D01*
X174359814Y-109940186D01*
X174276552Y-109838729D01*
X174247222Y-109802991D01*
X174163557Y-109646466D01*
X174112037Y-109476627D01*
X174094641Y-109300000D01*
X174112037Y-109123373D01*
X174163557Y-108953534D01*
X174247222Y-108797009D01*
X174276552Y-108761271D01*
X174359814Y-108659814D01*
X174461271Y-108576552D01*
X174497009Y-108547222D01*
X174653534Y-108463557D01*
X174823373Y-108412037D01*
X174889558Y-108405518D01*
X174955740Y-108399000D01*
X175044260Y-108399000D01*
X175110442Y-108405518D01*
X175110442Y-108405518D01*
G37*
G36*
X167220659Y-108074394D02*
G01*
X167354758Y-108115073D01*
X167478345Y-108181132D01*
X167586670Y-108270031D01*
X167675569Y-108378356D01*
X167741628Y-108501943D01*
X167782307Y-108636042D01*
X167796042Y-108775501D01*
X167782307Y-108914960D01*
X167741628Y-109049059D01*
X167675569Y-109172646D01*
X167586670Y-109280971D01*
X167478345Y-109369870D01*
X167354758Y-109435929D01*
X167220659Y-109476608D01*
X167116149Y-109486901D01*
X165725451Y-109486901D01*
X165620941Y-109476608D01*
X165486842Y-109435929D01*
X165363255Y-109369870D01*
X165254930Y-109280971D01*
X165166031Y-109172646D01*
X165099972Y-109049059D01*
X165059293Y-108914960D01*
X165045558Y-108775501D01*
X165059293Y-108636042D01*
X165099972Y-108501943D01*
X165166031Y-108378356D01*
X165254930Y-108270031D01*
X165363255Y-108181132D01*
X165486842Y-108115073D01*
X165620941Y-108074394D01*
X165725451Y-108064101D01*
X167116149Y-108064101D01*
X167220659Y-108074394D01*
X167220659Y-108074394D01*
G37*
G36*
X159600659Y-108074394D02*
G01*
X159734758Y-108115073D01*
X159858345Y-108181132D01*
X159966670Y-108270031D01*
X160055569Y-108378356D01*
X160121628Y-108501943D01*
X160162307Y-108636042D01*
X160176042Y-108775501D01*
X160162307Y-108914960D01*
X160121628Y-109049059D01*
X160055569Y-109172646D01*
X159966670Y-109280971D01*
X159858345Y-109369870D01*
X159734758Y-109435929D01*
X159600659Y-109476608D01*
X159496149Y-109486901D01*
X158105451Y-109486901D01*
X158000941Y-109476608D01*
X157866842Y-109435929D01*
X157743255Y-109369870D01*
X157634930Y-109280971D01*
X157546031Y-109172646D01*
X157479972Y-109049059D01*
X157439293Y-108914960D01*
X157425558Y-108775501D01*
X157439293Y-108636042D01*
X157479972Y-108501943D01*
X157546031Y-108378356D01*
X157634930Y-108270031D01*
X157743255Y-108181132D01*
X157866842Y-108115073D01*
X158000941Y-108074394D01*
X158105451Y-108064101D01*
X159496149Y-108064101D01*
X159600659Y-108074394D01*
X159600659Y-108074394D01*
G37*
G36*
X151110442Y-105645518D02*
G01*
X151176627Y-105652037D01*
X151346466Y-105703557D01*
X151502991Y-105787222D01*
X151538729Y-105816552D01*
X151640186Y-105899814D01*
X151723448Y-106001271D01*
X151752778Y-106037009D01*
X151836443Y-106193534D01*
X151887963Y-106363373D01*
X151905359Y-106540000D01*
X151887963Y-106716627D01*
X151836443Y-106886466D01*
X151752778Y-107042991D01*
X151723448Y-107078729D01*
X151640186Y-107180186D01*
X151538729Y-107263448D01*
X151502991Y-107292778D01*
X151346466Y-107376443D01*
X151176627Y-107427963D01*
X151110443Y-107434481D01*
X151044260Y-107441000D01*
X150955740Y-107441000D01*
X150889557Y-107434481D01*
X150823373Y-107427963D01*
X150653534Y-107376443D01*
X150497009Y-107292778D01*
X150461271Y-107263448D01*
X150359814Y-107180186D01*
X150276552Y-107078729D01*
X150247222Y-107042991D01*
X150163557Y-106886466D01*
X150112037Y-106716627D01*
X150094641Y-106540000D01*
X150112037Y-106363373D01*
X150163557Y-106193534D01*
X150247222Y-106037009D01*
X150276552Y-106001271D01*
X150359814Y-105899814D01*
X150461271Y-105816552D01*
X150497009Y-105787222D01*
X150653534Y-105703557D01*
X150823373Y-105652037D01*
X150889557Y-105645519D01*
X150955740Y-105639000D01*
X151044260Y-105639000D01*
X151110442Y-105645518D01*
X151110442Y-105645518D01*
G37*
G36*
X159600659Y-105534394D02*
G01*
X159734758Y-105575073D01*
X159858345Y-105641132D01*
X159966670Y-105730031D01*
X160055569Y-105838356D01*
X160121628Y-105961943D01*
X160162307Y-106096042D01*
X160176042Y-106235501D01*
X160162307Y-106374960D01*
X160121628Y-106509059D01*
X160055569Y-106632646D01*
X159966670Y-106740971D01*
X159858345Y-106829870D01*
X159734758Y-106895929D01*
X159600659Y-106936608D01*
X159496149Y-106946901D01*
X158105451Y-106946901D01*
X158000941Y-106936608D01*
X157866842Y-106895929D01*
X157743255Y-106829870D01*
X157634930Y-106740971D01*
X157546031Y-106632646D01*
X157479972Y-106509059D01*
X157439293Y-106374960D01*
X157425558Y-106235501D01*
X157439293Y-106096042D01*
X157479972Y-105961943D01*
X157546031Y-105838356D01*
X157634930Y-105730031D01*
X157743255Y-105641132D01*
X157866842Y-105575073D01*
X158000941Y-105534394D01*
X158105451Y-105524101D01*
X159496149Y-105524101D01*
X159600659Y-105534394D01*
X159600659Y-105534394D01*
G37*
G36*
X167220659Y-105534394D02*
G01*
X167354758Y-105575073D01*
X167478345Y-105641132D01*
X167586670Y-105730031D01*
X167675569Y-105838356D01*
X167741628Y-105961943D01*
X167782307Y-106096042D01*
X167796042Y-106235501D01*
X167782307Y-106374960D01*
X167741628Y-106509059D01*
X167675569Y-106632646D01*
X167586670Y-106740971D01*
X167478345Y-106829870D01*
X167354758Y-106895929D01*
X167220659Y-106936608D01*
X167116149Y-106946901D01*
X165725451Y-106946901D01*
X165620941Y-106936608D01*
X165486842Y-106895929D01*
X165363255Y-106829870D01*
X165254930Y-106740971D01*
X165166031Y-106632646D01*
X165099972Y-106509059D01*
X165059293Y-106374960D01*
X165045558Y-106235501D01*
X165059293Y-106096042D01*
X165099972Y-105961943D01*
X165166031Y-105838356D01*
X165254930Y-105730031D01*
X165363255Y-105641132D01*
X165486842Y-105575073D01*
X165620941Y-105534394D01*
X165725451Y-105524101D01*
X167116149Y-105524101D01*
X167220659Y-105534394D01*
X167220659Y-105534394D01*
G37*
G36*
X151901000Y-104901000D02*
G01*
X150099000Y-104901000D01*
X150099000Y-103099000D01*
X151901000Y-103099000D01*
X151901000Y-104901000D01*
X151901000Y-104901000D01*
G37*
G36*
X159600659Y-102994394D02*
G01*
X159734758Y-103035073D01*
X159858345Y-103101132D01*
X159966670Y-103190031D01*
X160055569Y-103298356D01*
X160121628Y-103421943D01*
X160162307Y-103556042D01*
X160176042Y-103695501D01*
X160162307Y-103834960D01*
X160121628Y-103969059D01*
X160055569Y-104092646D01*
X159966670Y-104200971D01*
X159858345Y-104289870D01*
X159734758Y-104355929D01*
X159600659Y-104396608D01*
X159496149Y-104406901D01*
X158105451Y-104406901D01*
X158000941Y-104396608D01*
X157866842Y-104355929D01*
X157743255Y-104289870D01*
X157634930Y-104200971D01*
X157546031Y-104092646D01*
X157479972Y-103969059D01*
X157439293Y-103834960D01*
X157425558Y-103695501D01*
X157439293Y-103556042D01*
X157479972Y-103421943D01*
X157546031Y-103298356D01*
X157634930Y-103190031D01*
X157743255Y-103101132D01*
X157866842Y-103035073D01*
X158000941Y-102994394D01*
X158105451Y-102984101D01*
X159496149Y-102984101D01*
X159600659Y-102994394D01*
X159600659Y-102994394D01*
G37*
G36*
X167220659Y-102994394D02*
G01*
X167354758Y-103035073D01*
X167478345Y-103101132D01*
X167586670Y-103190031D01*
X167675569Y-103298356D01*
X167741628Y-103421943D01*
X167782307Y-103556042D01*
X167796042Y-103695501D01*
X167782307Y-103834960D01*
X167741628Y-103969059D01*
X167675569Y-104092646D01*
X167586670Y-104200971D01*
X167478345Y-104289870D01*
X167354758Y-104355929D01*
X167220659Y-104396608D01*
X167116149Y-104406901D01*
X165725451Y-104406901D01*
X165620941Y-104396608D01*
X165486842Y-104355929D01*
X165363255Y-104289870D01*
X165254930Y-104200971D01*
X165166031Y-104092646D01*
X165099972Y-103969059D01*
X165059293Y-103834960D01*
X165045558Y-103695501D01*
X165059293Y-103556042D01*
X165099972Y-103421943D01*
X165166031Y-103298356D01*
X165254930Y-103190031D01*
X165363255Y-103101132D01*
X165486842Y-103035073D01*
X165620941Y-102994394D01*
X165725451Y-102984101D01*
X167116149Y-102984101D01*
X167220659Y-102994394D01*
X167220659Y-102994394D01*
G37*
G36*
X159600659Y-100454394D02*
G01*
X159734758Y-100495073D01*
X159858345Y-100561132D01*
X159966670Y-100650031D01*
X160055569Y-100758356D01*
X160121628Y-100881943D01*
X160162307Y-101016042D01*
X160176042Y-101155501D01*
X160162307Y-101294960D01*
X160121628Y-101429059D01*
X160055569Y-101552646D01*
X159966670Y-101660971D01*
X159858345Y-101749870D01*
X159734758Y-101815929D01*
X159600659Y-101856608D01*
X159496149Y-101866901D01*
X158105451Y-101866901D01*
X158000941Y-101856608D01*
X157866842Y-101815929D01*
X157743255Y-101749870D01*
X157634930Y-101660971D01*
X157546031Y-101552646D01*
X157479972Y-101429059D01*
X157439293Y-101294960D01*
X157425558Y-101155501D01*
X157439293Y-101016042D01*
X157479972Y-100881943D01*
X157546031Y-100758356D01*
X157634930Y-100650031D01*
X157743255Y-100561132D01*
X157866842Y-100495073D01*
X158000941Y-100454394D01*
X158105451Y-100444101D01*
X159496149Y-100444101D01*
X159600659Y-100454394D01*
X159600659Y-100454394D01*
G37*
G36*
X167220659Y-100454394D02*
G01*
X167354758Y-100495073D01*
X167478345Y-100561132D01*
X167586670Y-100650031D01*
X167675569Y-100758356D01*
X167741628Y-100881943D01*
X167782307Y-101016042D01*
X167796042Y-101155501D01*
X167782307Y-101294960D01*
X167741628Y-101429059D01*
X167675569Y-101552646D01*
X167586670Y-101660971D01*
X167478345Y-101749870D01*
X167354758Y-101815929D01*
X167220659Y-101856608D01*
X167116149Y-101866901D01*
X165725451Y-101866901D01*
X165620941Y-101856608D01*
X165486842Y-101815929D01*
X165363255Y-101749870D01*
X165254930Y-101660971D01*
X165166031Y-101552646D01*
X165099972Y-101429059D01*
X165059293Y-101294960D01*
X165045558Y-101155501D01*
X165059293Y-101016042D01*
X165099972Y-100881943D01*
X165166031Y-100758356D01*
X165254930Y-100650031D01*
X165363255Y-100561132D01*
X165486842Y-100495073D01*
X165620941Y-100454394D01*
X165725451Y-100444101D01*
X167116149Y-100444101D01*
X167220659Y-100454394D01*
X167220659Y-100454394D01*
G37*
G36*
X179901000Y-99901000D02*
G01*
X178099000Y-99901000D01*
X178099000Y-98099000D01*
X179901000Y-98099000D01*
X179901000Y-99901000D01*
X179901000Y-99901000D01*
G37*
G36*
X159600659Y-97914394D02*
G01*
X159734758Y-97955073D01*
X159858345Y-98021132D01*
X159966670Y-98110031D01*
X160055569Y-98218356D01*
X160121628Y-98341943D01*
X160162307Y-98476042D01*
X160176042Y-98615501D01*
X160162307Y-98754960D01*
X160121628Y-98889059D01*
X160055569Y-99012646D01*
X159966670Y-99120971D01*
X159858345Y-99209870D01*
X159734758Y-99275929D01*
X159600659Y-99316608D01*
X159496149Y-99326901D01*
X158105451Y-99326901D01*
X158000941Y-99316608D01*
X157866842Y-99275929D01*
X157743255Y-99209870D01*
X157634930Y-99120971D01*
X157546031Y-99012646D01*
X157479972Y-98889059D01*
X157439293Y-98754960D01*
X157425558Y-98615501D01*
X157439293Y-98476042D01*
X157479972Y-98341943D01*
X157546031Y-98218356D01*
X157634930Y-98110031D01*
X157743255Y-98021132D01*
X157866842Y-97955073D01*
X158000941Y-97914394D01*
X158105451Y-97904101D01*
X159496149Y-97904101D01*
X159600659Y-97914394D01*
X159600659Y-97914394D01*
G37*
G36*
X167220659Y-97914394D02*
G01*
X167354758Y-97955073D01*
X167478345Y-98021132D01*
X167586670Y-98110031D01*
X167675569Y-98218356D01*
X167741628Y-98341943D01*
X167782307Y-98476042D01*
X167796042Y-98615501D01*
X167782307Y-98754960D01*
X167741628Y-98889059D01*
X167675569Y-99012646D01*
X167586670Y-99120971D01*
X167478345Y-99209870D01*
X167354758Y-99275929D01*
X167220659Y-99316608D01*
X167116149Y-99326901D01*
X165725451Y-99326901D01*
X165620941Y-99316608D01*
X165486842Y-99275929D01*
X165363255Y-99209870D01*
X165254930Y-99120971D01*
X165166031Y-99012646D01*
X165099972Y-98889059D01*
X165059293Y-98754960D01*
X165045558Y-98615501D01*
X165059293Y-98476042D01*
X165099972Y-98341943D01*
X165166031Y-98218356D01*
X165254930Y-98110031D01*
X165363255Y-98021132D01*
X165486842Y-97955073D01*
X165620941Y-97914394D01*
X165725451Y-97904101D01*
X167116149Y-97904101D01*
X167220659Y-97914394D01*
X167220659Y-97914394D01*
G37*
G36*
X151817395Y-97085546D02*
G01*
X151990466Y-97157234D01*
X151990467Y-97157235D01*
X152146227Y-97261310D01*
X152278690Y-97393773D01*
X152278691Y-97393775D01*
X152382766Y-97549534D01*
X152454454Y-97722605D01*
X152491000Y-97906333D01*
X152491000Y-98093667D01*
X152454454Y-98277395D01*
X152382766Y-98450466D01*
X152348997Y-98501005D01*
X152278690Y-98606227D01*
X152146227Y-98738690D01*
X152121880Y-98754958D01*
X151990466Y-98842766D01*
X151817395Y-98914454D01*
X151633667Y-98951000D01*
X151446333Y-98951000D01*
X151262605Y-98914454D01*
X151089534Y-98842766D01*
X150958120Y-98754958D01*
X150933773Y-98738690D01*
X150801310Y-98606227D01*
X150731003Y-98501005D01*
X150697234Y-98450466D01*
X150625546Y-98277395D01*
X150589000Y-98093667D01*
X150589000Y-97906333D01*
X150625546Y-97722605D01*
X150697234Y-97549534D01*
X150801309Y-97393775D01*
X150801310Y-97393773D01*
X150933773Y-97261310D01*
X151089533Y-97157235D01*
X151089534Y-97157234D01*
X151262605Y-97085546D01*
X151446333Y-97049000D01*
X151633667Y-97049000D01*
X151817395Y-97085546D01*
X151817395Y-97085546D01*
G37*
G36*
X149951000Y-98951000D02*
G01*
X148049000Y-98951000D01*
X148049000Y-97049000D01*
X149951000Y-97049000D01*
X149951000Y-98951000D01*
X149951000Y-98951000D01*
G37*
G36*
X138248228Y-96971703D02*
G01*
X138403100Y-97035853D01*
X138542481Y-97128985D01*
X138661015Y-97247519D01*
X138754147Y-97386900D01*
X138818297Y-97541772D01*
X138851000Y-97706184D01*
X138851000Y-97873816D01*
X138818297Y-98038228D01*
X138754147Y-98193100D01*
X138661015Y-98332481D01*
X138542481Y-98451015D01*
X138403100Y-98544147D01*
X138248228Y-98608297D01*
X138083816Y-98641000D01*
X137916184Y-98641000D01*
X137751772Y-98608297D01*
X137596900Y-98544147D01*
X137457519Y-98451015D01*
X137338985Y-98332481D01*
X137245853Y-98193100D01*
X137181703Y-98038228D01*
X137149000Y-97873816D01*
X137149000Y-97706184D01*
X137181703Y-97541772D01*
X137245853Y-97386900D01*
X137338985Y-97247519D01*
X137457519Y-97128985D01*
X137596900Y-97035853D01*
X137751772Y-96971703D01*
X137916184Y-96939000D01*
X138083816Y-96939000D01*
X138248228Y-96971703D01*
X138248228Y-96971703D01*
G37*
G36*
X145786823Y-96951313D02*
G01*
X145947242Y-96999976D01*
X146014361Y-97035852D01*
X146095078Y-97078996D01*
X146224659Y-97185341D01*
X146331004Y-97314922D01*
X146331005Y-97314924D01*
X146410024Y-97462758D01*
X146458687Y-97623177D01*
X146475117Y-97790000D01*
X146458687Y-97956823D01*
X146419083Y-98087380D01*
X146412212Y-98110031D01*
X146410024Y-98117242D01*
X146369477Y-98193100D01*
X146331004Y-98265078D01*
X146224659Y-98394659D01*
X146095078Y-98501004D01*
X146095076Y-98501005D01*
X145947242Y-98580024D01*
X145786823Y-98628687D01*
X145661804Y-98641000D01*
X145578196Y-98641000D01*
X145453177Y-98628687D01*
X145292758Y-98580024D01*
X145144924Y-98501005D01*
X145144922Y-98501004D01*
X145015341Y-98394659D01*
X144908996Y-98265078D01*
X144870523Y-98193100D01*
X144829976Y-98117242D01*
X144827789Y-98110031D01*
X144820917Y-98087380D01*
X144781313Y-97956823D01*
X144764883Y-97790000D01*
X144781313Y-97623177D01*
X144829976Y-97462758D01*
X144908995Y-97314924D01*
X144908996Y-97314922D01*
X145015341Y-97185341D01*
X145144922Y-97078996D01*
X145225639Y-97035852D01*
X145292758Y-96999976D01*
X145453177Y-96951313D01*
X145578196Y-96939000D01*
X145661804Y-96939000D01*
X145786823Y-96951313D01*
X145786823Y-96951313D01*
G37*
G36*
X179110443Y-95565519D02*
G01*
X179176627Y-95572037D01*
X179346466Y-95623557D01*
X179502991Y-95707222D01*
X179538729Y-95736552D01*
X179640186Y-95819814D01*
X179723448Y-95921271D01*
X179752778Y-95957009D01*
X179836443Y-96113534D01*
X179887963Y-96283373D01*
X179905359Y-96460000D01*
X179887963Y-96636627D01*
X179836443Y-96806466D01*
X179752778Y-96962991D01*
X179723448Y-96998729D01*
X179640186Y-97100186D01*
X179538729Y-97183448D01*
X179502991Y-97212778D01*
X179346466Y-97296443D01*
X179176627Y-97347963D01*
X179110442Y-97354482D01*
X179044260Y-97361000D01*
X178955740Y-97361000D01*
X178889557Y-97354481D01*
X178823373Y-97347963D01*
X178653534Y-97296443D01*
X178497009Y-97212778D01*
X178461271Y-97183448D01*
X178359814Y-97100186D01*
X178276552Y-96998729D01*
X178247222Y-96962991D01*
X178163557Y-96806466D01*
X178112037Y-96636627D01*
X178094641Y-96460000D01*
X178112037Y-96283373D01*
X178163557Y-96113534D01*
X178247222Y-95957009D01*
X178276552Y-95921271D01*
X178359814Y-95819814D01*
X178461271Y-95736552D01*
X178497009Y-95707222D01*
X178653534Y-95623557D01*
X178823373Y-95572037D01*
X178889558Y-95565518D01*
X178955740Y-95559000D01*
X179044260Y-95559000D01*
X179110443Y-95565519D01*
X179110443Y-95565519D01*
G37*
G36*
X167220659Y-95374394D02*
G01*
X167354758Y-95415073D01*
X167478345Y-95481132D01*
X167586670Y-95570031D01*
X167675569Y-95678356D01*
X167741628Y-95801943D01*
X167782307Y-95936042D01*
X167796042Y-96075501D01*
X167782307Y-96214960D01*
X167741628Y-96349059D01*
X167675569Y-96472646D01*
X167586670Y-96580971D01*
X167478345Y-96669870D01*
X167354758Y-96735929D01*
X167220659Y-96776608D01*
X167116149Y-96786901D01*
X165725451Y-96786901D01*
X165620941Y-96776608D01*
X165486842Y-96735929D01*
X165363255Y-96669870D01*
X165254930Y-96580971D01*
X165166031Y-96472646D01*
X165099972Y-96349059D01*
X165059293Y-96214960D01*
X165045558Y-96075501D01*
X165059293Y-95936042D01*
X165099972Y-95801943D01*
X165166031Y-95678356D01*
X165254930Y-95570031D01*
X165363255Y-95481132D01*
X165486842Y-95415073D01*
X165620941Y-95374394D01*
X165725451Y-95364101D01*
X167116149Y-95364101D01*
X167220659Y-95374394D01*
X167220659Y-95374394D01*
G37*
G36*
X159600659Y-95374394D02*
G01*
X159734758Y-95415073D01*
X159858345Y-95481132D01*
X159966670Y-95570031D01*
X160055569Y-95678356D01*
X160121628Y-95801943D01*
X160162307Y-95936042D01*
X160176042Y-96075501D01*
X160162307Y-96214960D01*
X160121628Y-96349059D01*
X160055569Y-96472646D01*
X159966670Y-96580971D01*
X159858345Y-96669870D01*
X159734758Y-96735929D01*
X159600659Y-96776608D01*
X159496149Y-96786901D01*
X158105451Y-96786901D01*
X158000941Y-96776608D01*
X157866842Y-96735929D01*
X157743255Y-96669870D01*
X157634930Y-96580971D01*
X157546031Y-96472646D01*
X157479972Y-96349059D01*
X157439293Y-96214960D01*
X157425558Y-96075501D01*
X157439293Y-95936042D01*
X157479972Y-95801943D01*
X157546031Y-95678356D01*
X157634930Y-95570031D01*
X157743255Y-95481132D01*
X157866842Y-95415073D01*
X158000941Y-95374394D01*
X158105451Y-95364101D01*
X159496149Y-95364101D01*
X159600659Y-95374394D01*
X159600659Y-95374394D01*
G37*
G36*
X179110443Y-93025519D02*
G01*
X179176627Y-93032037D01*
X179346466Y-93083557D01*
X179502991Y-93167222D01*
X179538729Y-93196552D01*
X179640186Y-93279814D01*
X179723448Y-93381271D01*
X179752778Y-93417009D01*
X179836443Y-93573534D01*
X179887963Y-93743373D01*
X179905359Y-93920000D01*
X179887963Y-94096627D01*
X179836443Y-94266466D01*
X179752778Y-94422991D01*
X179723448Y-94458729D01*
X179640186Y-94560186D01*
X179538729Y-94643448D01*
X179502991Y-94672778D01*
X179346466Y-94756443D01*
X179176627Y-94807963D01*
X179110443Y-94814481D01*
X179044260Y-94821000D01*
X178955740Y-94821000D01*
X178889558Y-94814482D01*
X178823373Y-94807963D01*
X178653534Y-94756443D01*
X178497009Y-94672778D01*
X178461271Y-94643448D01*
X178359814Y-94560186D01*
X178276552Y-94458729D01*
X178247222Y-94422991D01*
X178163557Y-94266466D01*
X178112037Y-94096627D01*
X178094641Y-93920000D01*
X178112037Y-93743373D01*
X178163557Y-93573534D01*
X178247222Y-93417009D01*
X178276552Y-93381271D01*
X178359814Y-93279814D01*
X178461271Y-93196552D01*
X178497009Y-93167222D01*
X178653534Y-93083557D01*
X178823373Y-93032037D01*
X178889557Y-93025519D01*
X178955740Y-93019000D01*
X179044260Y-93019000D01*
X179110443Y-93025519D01*
X179110443Y-93025519D01*
G37*
G36*
X159600659Y-92834394D02*
G01*
X159734758Y-92875073D01*
X159858345Y-92941132D01*
X159966670Y-93030031D01*
X160055569Y-93138356D01*
X160121628Y-93261943D01*
X160162307Y-93396042D01*
X160176042Y-93535501D01*
X160162307Y-93674960D01*
X160121628Y-93809059D01*
X160055569Y-93932646D01*
X159966670Y-94040971D01*
X159858345Y-94129870D01*
X159734758Y-94195929D01*
X159600659Y-94236608D01*
X159496149Y-94246901D01*
X158105451Y-94246901D01*
X158000941Y-94236608D01*
X157866842Y-94195929D01*
X157743255Y-94129870D01*
X157634930Y-94040971D01*
X157546031Y-93932646D01*
X157479972Y-93809059D01*
X157439293Y-93674960D01*
X157425558Y-93535501D01*
X157439293Y-93396042D01*
X157479972Y-93261943D01*
X157546031Y-93138356D01*
X157634930Y-93030031D01*
X157743255Y-92941132D01*
X157866842Y-92875073D01*
X158000941Y-92834394D01*
X158105451Y-92824101D01*
X159496149Y-92824101D01*
X159600659Y-92834394D01*
X159600659Y-92834394D01*
G37*
G36*
X167220659Y-92834394D02*
G01*
X167354758Y-92875073D01*
X167478345Y-92941132D01*
X167586670Y-93030031D01*
X167675569Y-93138356D01*
X167741628Y-93261943D01*
X167782307Y-93396042D01*
X167796042Y-93535501D01*
X167782307Y-93674960D01*
X167741628Y-93809059D01*
X167675569Y-93932646D01*
X167586670Y-94040971D01*
X167478345Y-94129870D01*
X167354758Y-94195929D01*
X167220659Y-94236608D01*
X167116149Y-94246901D01*
X165725451Y-94246901D01*
X165620941Y-94236608D01*
X165486842Y-94195929D01*
X165363255Y-94129870D01*
X165254930Y-94040971D01*
X165166031Y-93932646D01*
X165099972Y-93809059D01*
X165059293Y-93674960D01*
X165045558Y-93535501D01*
X165059293Y-93396042D01*
X165099972Y-93261943D01*
X165166031Y-93138356D01*
X165254930Y-93030031D01*
X165363255Y-92941132D01*
X165486842Y-92875073D01*
X165620941Y-92834394D01*
X165725451Y-92824101D01*
X167116149Y-92824101D01*
X167220659Y-92834394D01*
X167220659Y-92834394D01*
G37*
G36*
X145786823Y-91161313D02*
G01*
X145947242Y-91209976D01*
X146014361Y-91245852D01*
X146095078Y-91288996D01*
X146224659Y-91395341D01*
X146331004Y-91524922D01*
X146331005Y-91524924D01*
X146410024Y-91672758D01*
X146458687Y-91833177D01*
X146475117Y-92000000D01*
X146458687Y-92166823D01*
X146410024Y-92327242D01*
X146369477Y-92403100D01*
X146331004Y-92475078D01*
X146224659Y-92604659D01*
X146095078Y-92711004D01*
X146095076Y-92711005D01*
X145947242Y-92790024D01*
X145786823Y-92838687D01*
X145661804Y-92851000D01*
X145578196Y-92851000D01*
X145453177Y-92838687D01*
X145292758Y-92790024D01*
X145144924Y-92711005D01*
X145144922Y-92711004D01*
X145015341Y-92604659D01*
X144908996Y-92475078D01*
X144870523Y-92403100D01*
X144829976Y-92327242D01*
X144781313Y-92166823D01*
X144764883Y-92000000D01*
X144781313Y-91833177D01*
X144829976Y-91672758D01*
X144908995Y-91524924D01*
X144908996Y-91524922D01*
X145015341Y-91395341D01*
X145144922Y-91288996D01*
X145225639Y-91245852D01*
X145292758Y-91209976D01*
X145453177Y-91161313D01*
X145578196Y-91149000D01*
X145661804Y-91149000D01*
X145786823Y-91161313D01*
X145786823Y-91161313D01*
G37*
G36*
X138248228Y-91181703D02*
G01*
X138403100Y-91245853D01*
X138542481Y-91338985D01*
X138661015Y-91457519D01*
X138754147Y-91596900D01*
X138818297Y-91751772D01*
X138851000Y-91916184D01*
X138851000Y-92083816D01*
X138818297Y-92248228D01*
X138754147Y-92403100D01*
X138661015Y-92542481D01*
X138542481Y-92661015D01*
X138403100Y-92754147D01*
X138248228Y-92818297D01*
X138083816Y-92851000D01*
X137916184Y-92851000D01*
X137751772Y-92818297D01*
X137596900Y-92754147D01*
X137457519Y-92661015D01*
X137338985Y-92542481D01*
X137245853Y-92403100D01*
X137181703Y-92248228D01*
X137149000Y-92083816D01*
X137149000Y-91916184D01*
X137181703Y-91751772D01*
X137245853Y-91596900D01*
X137338985Y-91457519D01*
X137457519Y-91338985D01*
X137596900Y-91245853D01*
X137751772Y-91181703D01*
X137916184Y-91149000D01*
X138083816Y-91149000D01*
X138248228Y-91181703D01*
X138248228Y-91181703D01*
G37*
G36*
X179110443Y-90485519D02*
G01*
X179176627Y-90492037D01*
X179346466Y-90543557D01*
X179502991Y-90627222D01*
X179538729Y-90656552D01*
X179640186Y-90739814D01*
X179723448Y-90841271D01*
X179752778Y-90877009D01*
X179836443Y-91033534D01*
X179887963Y-91203373D01*
X179905359Y-91380000D01*
X179887963Y-91556627D01*
X179836443Y-91726466D01*
X179752778Y-91882991D01*
X179725537Y-91916184D01*
X179640186Y-92020186D01*
X179562651Y-92083816D01*
X179502991Y-92132778D01*
X179346466Y-92216443D01*
X179176627Y-92267963D01*
X179110442Y-92274482D01*
X179044260Y-92281000D01*
X178955740Y-92281000D01*
X178889557Y-92274481D01*
X178823373Y-92267963D01*
X178653534Y-92216443D01*
X178497009Y-92132778D01*
X178437349Y-92083816D01*
X178359814Y-92020186D01*
X178274463Y-91916184D01*
X178247222Y-91882991D01*
X178163557Y-91726466D01*
X178112037Y-91556627D01*
X178094641Y-91380000D01*
X178112037Y-91203373D01*
X178163557Y-91033534D01*
X178247222Y-90877009D01*
X178276552Y-90841271D01*
X178359814Y-90739814D01*
X178461271Y-90656552D01*
X178497009Y-90627222D01*
X178653534Y-90543557D01*
X178823373Y-90492037D01*
X178889558Y-90485518D01*
X178955740Y-90479000D01*
X179044260Y-90479000D01*
X179110443Y-90485519D01*
X179110443Y-90485519D01*
G37*
G36*
X167220659Y-90294394D02*
G01*
X167354758Y-90335073D01*
X167478345Y-90401132D01*
X167586670Y-90490031D01*
X167675569Y-90598356D01*
X167741628Y-90721943D01*
X167782307Y-90856042D01*
X167796042Y-90995501D01*
X167782307Y-91134960D01*
X167741628Y-91269059D01*
X167675569Y-91392646D01*
X167586670Y-91500971D01*
X167478345Y-91589870D01*
X167354758Y-91655929D01*
X167220659Y-91696608D01*
X167116149Y-91706901D01*
X165725451Y-91706901D01*
X165620941Y-91696608D01*
X165486842Y-91655929D01*
X165363255Y-91589870D01*
X165254930Y-91500971D01*
X165166031Y-91392646D01*
X165099972Y-91269059D01*
X165059293Y-91134960D01*
X165045558Y-90995501D01*
X165059293Y-90856042D01*
X165099972Y-90721943D01*
X165166031Y-90598356D01*
X165254930Y-90490031D01*
X165363255Y-90401132D01*
X165486842Y-90335073D01*
X165620941Y-90294394D01*
X165725451Y-90284101D01*
X167116149Y-90284101D01*
X167220659Y-90294394D01*
X167220659Y-90294394D01*
G37*
G36*
X159600659Y-90294394D02*
G01*
X159734758Y-90335073D01*
X159858345Y-90401132D01*
X159966670Y-90490031D01*
X160055569Y-90598356D01*
X160121628Y-90721943D01*
X160162307Y-90856042D01*
X160176042Y-90995501D01*
X160162307Y-91134960D01*
X160121628Y-91269059D01*
X160055569Y-91392646D01*
X159966670Y-91500971D01*
X159858345Y-91589870D01*
X159734758Y-91655929D01*
X159600659Y-91696608D01*
X159496149Y-91706901D01*
X158105451Y-91706901D01*
X158000941Y-91696608D01*
X157866842Y-91655929D01*
X157743255Y-91589870D01*
X157634930Y-91500971D01*
X157546031Y-91392646D01*
X157479972Y-91269059D01*
X157439293Y-91134960D01*
X157425558Y-90995501D01*
X157439293Y-90856042D01*
X157479972Y-90721943D01*
X157546031Y-90598356D01*
X157634930Y-90490031D01*
X157743255Y-90401132D01*
X157866842Y-90335073D01*
X158000941Y-90294394D01*
X158105451Y-90284101D01*
X159496149Y-90284101D01*
X159600659Y-90294394D01*
X159600659Y-90294394D01*
G37*
G36*
X151817395Y-89085546D02*
G01*
X151990466Y-89157234D01*
X152067818Y-89208919D01*
X152146227Y-89261310D01*
X152278690Y-89393773D01*
X152278691Y-89393775D01*
X152382766Y-89549534D01*
X152454454Y-89722605D01*
X152491000Y-89906333D01*
X152491000Y-90093667D01*
X152454454Y-90277395D01*
X152382766Y-90450466D01*
X152382765Y-90450467D01*
X152278690Y-90606227D01*
X152146227Y-90738690D01*
X152144543Y-90739815D01*
X151990466Y-90842766D01*
X151817395Y-90914454D01*
X151633667Y-90951000D01*
X151446333Y-90951000D01*
X151262605Y-90914454D01*
X151089534Y-90842766D01*
X150935457Y-90739815D01*
X150933773Y-90738690D01*
X150801310Y-90606227D01*
X150697235Y-90450467D01*
X150697234Y-90450466D01*
X150625546Y-90277395D01*
X150589000Y-90093667D01*
X150589000Y-89906333D01*
X150625546Y-89722605D01*
X150697234Y-89549534D01*
X150801309Y-89393775D01*
X150801310Y-89393773D01*
X150933773Y-89261310D01*
X151012182Y-89208919D01*
X151089534Y-89157234D01*
X151262605Y-89085546D01*
X151446333Y-89049000D01*
X151633667Y-89049000D01*
X151817395Y-89085546D01*
X151817395Y-89085546D01*
G37*
G36*
X149951000Y-90951000D02*
G01*
X148049000Y-90951000D01*
X148049000Y-89049000D01*
X149951000Y-89049000D01*
X149951000Y-90951000D01*
X149951000Y-90951000D01*
G37*
G36*
X179110442Y-87945518D02*
G01*
X179176627Y-87952037D01*
X179346466Y-88003557D01*
X179502991Y-88087222D01*
X179538729Y-88116552D01*
X179640186Y-88199814D01*
X179723448Y-88301271D01*
X179752778Y-88337009D01*
X179836443Y-88493534D01*
X179887963Y-88663373D01*
X179905359Y-88840000D01*
X179887963Y-89016627D01*
X179836443Y-89186466D01*
X179752778Y-89342991D01*
X179723448Y-89378729D01*
X179640186Y-89480186D01*
X179555685Y-89549533D01*
X179502991Y-89592778D01*
X179346466Y-89676443D01*
X179176627Y-89727963D01*
X179110442Y-89734482D01*
X179044260Y-89741000D01*
X178955740Y-89741000D01*
X178889557Y-89734481D01*
X178823373Y-89727963D01*
X178653534Y-89676443D01*
X178497009Y-89592778D01*
X178444315Y-89549533D01*
X178359814Y-89480186D01*
X178276552Y-89378729D01*
X178247222Y-89342991D01*
X178163557Y-89186466D01*
X178112037Y-89016627D01*
X178094641Y-88840000D01*
X178112037Y-88663373D01*
X178163557Y-88493534D01*
X178247222Y-88337009D01*
X178276552Y-88301271D01*
X178359814Y-88199814D01*
X178461271Y-88116552D01*
X178497009Y-88087222D01*
X178653534Y-88003557D01*
X178823373Y-87952037D01*
X178889558Y-87945518D01*
X178955740Y-87939000D01*
X179044260Y-87939000D01*
X179110442Y-87945518D01*
X179110442Y-87945518D01*
G37*
G36*
X167220659Y-87754394D02*
G01*
X167354758Y-87795073D01*
X167478345Y-87861132D01*
X167586670Y-87950031D01*
X167675569Y-88058356D01*
X167741628Y-88181943D01*
X167782307Y-88316042D01*
X167796042Y-88455501D01*
X167782307Y-88594960D01*
X167741628Y-88729059D01*
X167675569Y-88852646D01*
X167586670Y-88960971D01*
X167478345Y-89049870D01*
X167354758Y-89115929D01*
X167220659Y-89156608D01*
X167116149Y-89166901D01*
X165725451Y-89166901D01*
X165620941Y-89156608D01*
X165486842Y-89115929D01*
X165363255Y-89049870D01*
X165254930Y-88960971D01*
X165166031Y-88852646D01*
X165099972Y-88729059D01*
X165059293Y-88594960D01*
X165045558Y-88455501D01*
X165059293Y-88316042D01*
X165099972Y-88181943D01*
X165166031Y-88058356D01*
X165254930Y-87950031D01*
X165363255Y-87861132D01*
X165486842Y-87795073D01*
X165620941Y-87754394D01*
X165725451Y-87744101D01*
X167116149Y-87744101D01*
X167220659Y-87754394D01*
X167220659Y-87754394D01*
G37*
G36*
X159600659Y-87754394D02*
G01*
X159734758Y-87795073D01*
X159858345Y-87861132D01*
X159966670Y-87950031D01*
X160055569Y-88058356D01*
X160121628Y-88181943D01*
X160162307Y-88316042D01*
X160176042Y-88455501D01*
X160162307Y-88594960D01*
X160121628Y-88729059D01*
X160055569Y-88852646D01*
X159966670Y-88960971D01*
X159858345Y-89049870D01*
X159734758Y-89115929D01*
X159600659Y-89156608D01*
X159496149Y-89166901D01*
X158105451Y-89166901D01*
X158000941Y-89156608D01*
X157866842Y-89115929D01*
X157743255Y-89049870D01*
X157634930Y-88960971D01*
X157546031Y-88852646D01*
X157479972Y-88729059D01*
X157439293Y-88594960D01*
X157425558Y-88455501D01*
X157439293Y-88316042D01*
X157479972Y-88181943D01*
X157546031Y-88058356D01*
X157634930Y-87950031D01*
X157743255Y-87861132D01*
X157866842Y-87795073D01*
X158000941Y-87754394D01*
X158105451Y-87744101D01*
X159496149Y-87744101D01*
X159600659Y-87754394D01*
X159600659Y-87754394D01*
G37*
G36*
X179110443Y-85405519D02*
G01*
X179176627Y-85412037D01*
X179346466Y-85463557D01*
X179502991Y-85547222D01*
X179538729Y-85576552D01*
X179640186Y-85659814D01*
X179723448Y-85761271D01*
X179752778Y-85797009D01*
X179836443Y-85953534D01*
X179887963Y-86123373D01*
X179905359Y-86300000D01*
X179887963Y-86476627D01*
X179836443Y-86646466D01*
X179752778Y-86802991D01*
X179723448Y-86838729D01*
X179640186Y-86940186D01*
X179538729Y-87023448D01*
X179502991Y-87052778D01*
X179346466Y-87136443D01*
X179176627Y-87187963D01*
X179110443Y-87194481D01*
X179044260Y-87201000D01*
X178955740Y-87201000D01*
X178889557Y-87194481D01*
X178823373Y-87187963D01*
X178653534Y-87136443D01*
X178497009Y-87052778D01*
X178461271Y-87023448D01*
X178359814Y-86940186D01*
X178276552Y-86838729D01*
X178247222Y-86802991D01*
X178163557Y-86646466D01*
X178112037Y-86476627D01*
X178094641Y-86300000D01*
X178112037Y-86123373D01*
X178163557Y-85953534D01*
X178247222Y-85797009D01*
X178276552Y-85761271D01*
X178359814Y-85659814D01*
X178461271Y-85576552D01*
X178497009Y-85547222D01*
X178653534Y-85463557D01*
X178823373Y-85412037D01*
X178889557Y-85405519D01*
X178955740Y-85399000D01*
X179044260Y-85399000D01*
X179110443Y-85405519D01*
X179110443Y-85405519D01*
G37*
G36*
X179110443Y-82865519D02*
G01*
X179176627Y-82872037D01*
X179346466Y-82923557D01*
X179502991Y-83007222D01*
X179538729Y-83036552D01*
X179640186Y-83119814D01*
X179723448Y-83221271D01*
X179752778Y-83257009D01*
X179836443Y-83413534D01*
X179887963Y-83583373D01*
X179905359Y-83760000D01*
X179887963Y-83936627D01*
X179836443Y-84106466D01*
X179752778Y-84262991D01*
X179723448Y-84298729D01*
X179640186Y-84400186D01*
X179538729Y-84483448D01*
X179502991Y-84512778D01*
X179346466Y-84596443D01*
X179176627Y-84647963D01*
X179110442Y-84654482D01*
X179044260Y-84661000D01*
X178955740Y-84661000D01*
X178889558Y-84654482D01*
X178823373Y-84647963D01*
X178653534Y-84596443D01*
X178497009Y-84512778D01*
X178461271Y-84483448D01*
X178359814Y-84400186D01*
X178276552Y-84298729D01*
X178247222Y-84262991D01*
X178163557Y-84106466D01*
X178112037Y-83936627D01*
X178094641Y-83760000D01*
X178112037Y-83583373D01*
X178163557Y-83413534D01*
X178247222Y-83257009D01*
X178276552Y-83221271D01*
X178359814Y-83119814D01*
X178461271Y-83036552D01*
X178497009Y-83007222D01*
X178653534Y-82923557D01*
X178823373Y-82872037D01*
X178889557Y-82865519D01*
X178955740Y-82859000D01*
X179044260Y-82859000D01*
X179110443Y-82865519D01*
X179110443Y-82865519D01*
G37*
G36*
X179110442Y-80325518D02*
G01*
X179176627Y-80332037D01*
X179346466Y-80383557D01*
X179502991Y-80467222D01*
X179538729Y-80496552D01*
X179640186Y-80579814D01*
X179723448Y-80681271D01*
X179752778Y-80717009D01*
X179836443Y-80873534D01*
X179887963Y-81043373D01*
X179905359Y-81220000D01*
X179887963Y-81396627D01*
X179836443Y-81566466D01*
X179752778Y-81722991D01*
X179723448Y-81758729D01*
X179640186Y-81860186D01*
X179538729Y-81943448D01*
X179502991Y-81972778D01*
X179346466Y-82056443D01*
X179176627Y-82107963D01*
X179110443Y-82114481D01*
X179044260Y-82121000D01*
X178955740Y-82121000D01*
X178889557Y-82114481D01*
X178823373Y-82107963D01*
X178653534Y-82056443D01*
X178497009Y-81972778D01*
X178461271Y-81943448D01*
X178359814Y-81860186D01*
X178276552Y-81758729D01*
X178247222Y-81722991D01*
X178163557Y-81566466D01*
X178112037Y-81396627D01*
X178094641Y-81220000D01*
X178112037Y-81043373D01*
X178163557Y-80873534D01*
X178247222Y-80717009D01*
X178276552Y-80681271D01*
X178359814Y-80579814D01*
X178461271Y-80496552D01*
X178497009Y-80467222D01*
X178653534Y-80383557D01*
X178823373Y-80332037D01*
X178889558Y-80325518D01*
X178955740Y-80319000D01*
X179044260Y-80319000D01*
X179110442Y-80325518D01*
X179110442Y-80325518D01*
G37*
M02*
