G04 #@! TF.GenerationSoftware,KiCad,Pcbnew,(5.1.2)-1*
G04 #@! TF.CreationDate,2019-05-27T16:10:05+02:00*
G04 #@! TF.ProjectId,Dispositivo_Resp,44697370-6f73-4697-9469-766f5f526573,rev?*
G04 #@! TF.SameCoordinates,Original*
G04 #@! TF.FileFunction,Copper,L2,Bot*
G04 #@! TF.FilePolarity,Positive*
%FSLAX46Y46*%
G04 Gerber Fmt 4.6, Leading zero omitted, Abs format (unit mm)*
G04 Created by KiCad (PCBNEW (5.1.2)-1) date 2019-05-27 16:10:05*
%MOMM*%
%LPD*%
G04 APERTURE LIST*
%ADD10O,1.600000X1.600000*%
%ADD11C,1.600000*%
%ADD12O,1.700000X1.700000*%
%ADD13R,1.700000X1.700000*%
%ADD14C,1.800000*%
%ADD15R,1.800000X1.800000*%
%ADD16O,2.641600X1.320800*%
%ADD17C,1.500000*%
%ADD18C,0.250000*%
G04 APERTURE END LIST*
D10*
X145620000Y-97790000D03*
D11*
X138000000Y-97790000D03*
D10*
X145620000Y-92000000D03*
D11*
X138000000Y-92000000D03*
D12*
X179000000Y-81220000D03*
X179000000Y-83760000D03*
X179000000Y-86300000D03*
X179000000Y-88840000D03*
X179000000Y-91380000D03*
X179000000Y-93920000D03*
X179000000Y-96460000D03*
D13*
X179000000Y-99000000D03*
D12*
X151000000Y-106540000D03*
D13*
X151000000Y-104000000D03*
D14*
X151540000Y-98000000D03*
D15*
X149000000Y-98000000D03*
D14*
X151540000Y-90000000D03*
D15*
X149000000Y-90000000D03*
D11*
X140500000Y-118000000D03*
X138000000Y-118000000D03*
X140500000Y-112000000D03*
X138000000Y-112000000D03*
D13*
X175000000Y-122000000D03*
D12*
X175000000Y-119460000D03*
X175000000Y-116920000D03*
X175000000Y-114380000D03*
X175000000Y-111840000D03*
X175000000Y-109300000D03*
D16*
X158800800Y-88455501D03*
X158800800Y-90995501D03*
X158800800Y-93535501D03*
X158800800Y-96075501D03*
X158800800Y-98615501D03*
X158800800Y-101155501D03*
X158800800Y-103695501D03*
X158800800Y-106235501D03*
X158800800Y-108775501D03*
X158800800Y-111315501D03*
X158800800Y-113855501D03*
X158800800Y-116395501D03*
X158800800Y-118935501D03*
X158800800Y-121475501D03*
X166420800Y-121475501D03*
X166420800Y-118935501D03*
X166420800Y-116395501D03*
X166420800Y-113855501D03*
X166420800Y-111315501D03*
X166420800Y-108775501D03*
X166420800Y-106235501D03*
X166420800Y-103695501D03*
X166420800Y-101155501D03*
X166420800Y-98615501D03*
X166420800Y-96075501D03*
X166420800Y-93535501D03*
X166420800Y-90995501D03*
X166420800Y-88455501D03*
D17*
X151130000Y-115570000D03*
X151130000Y-120470000D03*
D18*
X158496301Y-104000000D02*
X158800800Y-103695501D01*
X151000000Y-104000000D02*
X158496301Y-104000000D01*
X151000000Y-104000000D02*
X137000000Y-104000000D01*
X137000000Y-104000000D02*
X134000000Y-101000000D01*
X134000000Y-93082998D02*
X143082998Y-84000000D01*
X164019279Y-84000000D02*
X170000000Y-89980721D01*
X143082998Y-84000000D02*
X164019279Y-84000000D01*
X167081200Y-108775501D02*
X166420800Y-108775501D01*
X170000000Y-105856701D02*
X167081200Y-108775501D01*
X170000000Y-89980721D02*
X170000000Y-105856701D01*
X175000000Y-111840000D02*
X173160000Y-111840000D01*
X173160000Y-111840000D02*
X171320000Y-110000000D01*
X171320000Y-107176701D02*
X170000000Y-105856701D01*
X179000000Y-99000000D02*
X179000000Y-100100000D01*
X171320000Y-110000000D02*
X171320000Y-107176701D01*
X171320000Y-107176701D02*
X174823299Y-107176701D01*
X174823299Y-107176701D02*
X179000000Y-103000000D01*
X179000000Y-103000000D02*
X179000000Y-99000000D01*
X134000000Y-101000000D02*
X134000000Y-98000000D01*
X134000000Y-98000000D02*
X134000000Y-93082998D01*
X151304499Y-106235501D02*
X151000000Y-106540000D01*
X158800800Y-106235501D02*
X151304499Y-106235501D01*
X151000000Y-106540000D02*
X135540000Y-106540000D01*
X135540000Y-106540000D02*
X130000000Y-101000000D01*
X130000000Y-101000000D02*
X130000000Y-94000000D01*
X130000000Y-94000000D02*
X141000000Y-83000000D01*
X141000000Y-83000000D02*
X165000000Y-83000000D01*
X165000000Y-83000000D02*
X173000000Y-91000000D01*
X173000000Y-91000000D02*
X173000000Y-95000000D01*
X177540000Y-95000000D02*
X179000000Y-96460000D01*
X173000000Y-95000000D02*
X177540000Y-95000000D01*
M02*
